<svg width="1041" height="1020" viewBox="0 0 1041 1020" fill="none" xmlns="http://www.w3.org/2000/svg">
<rect x="773.65" y="305.543" width="267.35" height="255.598" rx="12" fill="white"/>
<path d="M803.749 342.565C802.562 342.575 801.543 342.374 800.695 341.961C799.847 341.549 799.155 341.009 798.621 340.342C798.099 339.674 797.715 338.946 797.47 338.156C797.224 337.366 797.105 336.605 797.111 335.873L797.114 335.477C797.121 334.661 797.254 333.856 797.513 333.062C797.783 332.268 798.192 331.544 798.737 330.892C799.283 330.239 799.971 329.717 800.802 329.326C801.645 328.923 802.637 328.716 803.777 328.706C804.965 328.696 805.995 328.903 806.867 329.327C807.752 329.739 808.455 330.333 808.976 331.108C809.498 331.872 809.808 332.769 809.907 333.8L807.333 333.822C807.242 333.223 807.031 332.721 806.698 332.316C806.378 331.899 805.966 331.59 805.464 331.391C804.962 331.179 804.393 331.076 803.757 331.082C803.109 331.088 802.532 331.207 802.026 331.439C801.52 331.659 801.098 331.975 800.758 332.386C800.419 332.797 800.157 333.279 799.972 333.833C799.799 334.386 799.71 334.999 799.704 335.671C799.699 336.319 799.778 336.918 799.941 337.468C800.116 338.019 800.376 338.503 800.721 338.92C801.065 339.324 801.489 339.639 801.991 339.862C802.505 340.086 803.098 340.195 803.77 340.189C804.754 340.18 805.584 339.933 806.26 339.447C806.948 338.949 807.368 338.262 807.519 337.384L810.093 337.362C809.965 338.299 809.64 339.16 809.117 339.944C808.595 340.729 807.881 341.359 806.977 341.835C806.073 342.31 804.997 342.554 803.749 342.565ZM817.933 342.099L817.957 339.201L817.543 339.205L817.571 335.983C817.575 335.419 817.441 335 817.167 334.726C816.894 334.453 816.469 334.318 815.893 334.323C815.593 334.326 815.233 334.335 814.813 334.351C814.393 334.367 813.967 334.388 813.534 334.416C813.114 334.432 812.736 334.453 812.4 334.48L812.418 332.356C812.694 332.33 813.006 332.303 813.355 332.276C813.703 332.249 814.057 332.234 814.417 332.231C814.789 332.215 815.137 332.206 815.461 332.203C816.469 332.195 817.302 332.319 817.959 332.578C818.629 332.836 819.13 333.245 819.461 333.806C819.804 334.367 819.972 335.104 819.964 336.016L819.913 342.081L817.933 342.099ZM814.781 342.378C814.073 342.384 813.45 342.264 812.912 342.017C812.386 341.769 811.975 341.413 811.679 340.948C811.395 340.482 811.256 339.919 811.262 339.259C811.268 338.539 811.447 337.95 811.799 337.491C812.162 337.032 812.663 336.685 813.301 336.452C813.951 336.218 814.708 336.098 815.572 336.09L817.84 336.07L817.827 337.564L815.523 337.584C814.947 337.589 814.502 337.737 814.188 338.028C813.885 338.307 813.732 338.668 813.729 339.112C813.725 339.556 813.872 339.915 814.169 340.188C814.479 340.461 814.922 340.595 815.498 340.59C815.846 340.587 816.164 340.524 816.453 340.402C816.754 340.267 817.002 340.049 817.197 339.747C817.403 339.434 817.521 339.013 817.549 338.485L818.155 339.181C818.09 339.866 817.917 340.443 817.637 340.914C817.369 341.384 816.994 341.747 816.512 342.003C816.042 342.247 815.465 342.372 814.781 342.378ZM822.593 342.058L822.675 332.284L824.655 332.267L824.62 336.407L824.566 336.407C824.578 335.004 824.887 333.939 825.493 333.214C826.099 332.488 826.984 332.121 828.148 332.111L828.508 332.107L828.49 334.285L827.806 334.291C826.966 334.299 826.31 334.532 825.838 334.993C825.378 335.44 825.145 336.09 825.138 336.942L825.095 342.036L822.593 342.058ZM834.075 342.282C833.391 342.288 832.762 342.167 832.188 341.92C831.614 341.673 831.119 341.324 830.703 340.871C830.287 340.419 829.968 339.894 829.745 339.296C829.522 338.686 829.414 338.027 829.42 337.319L829.423 336.941C829.429 336.245 829.542 335.59 829.763 334.976C829.997 334.362 830.313 333.826 830.713 333.366C831.125 332.907 831.614 332.548 832.18 332.291C832.758 332.022 833.395 331.885 834.091 331.879C834.859 331.872 835.53 332.034 836.103 332.365C836.688 332.684 837.152 333.172 837.494 333.829C837.837 334.486 838.022 335.312 838.049 336.308L837.319 335.45L837.375 328.79L839.877 328.769L839.765 341.908L837.786 341.925L837.821 337.768L838.253 337.764C838.208 338.76 837.997 339.596 837.62 340.271C837.242 340.934 836.746 341.437 836.131 341.778C835.528 342.107 834.843 342.275 834.075 342.282ZM834.651 340.171C835.143 340.167 835.594 340.055 836.003 339.835C836.413 339.604 836.74 339.277 836.984 338.855C837.239 338.421 837.37 337.915 837.375 337.339L837.381 336.619C837.385 336.044 837.264 335.565 837.015 335.183C836.766 334.789 836.439 334.492 836.032 334.292C835.626 334.079 835.183 333.975 834.703 333.979C834.163 333.984 833.682 334.12 833.26 334.388C832.85 334.643 832.523 335.006 832.279 335.476C832.047 335.946 831.928 336.493 831.923 337.117C831.918 337.741 832.033 338.286 832.269 338.752C832.505 339.206 832.826 339.557 833.232 339.805C833.65 340.054 834.123 340.176 834.651 340.171ZM850.041 342.124C848.697 342.136 847.644 341.863 846.881 341.306C846.129 340.737 845.74 339.948 845.713 338.94L847.963 338.921C847.996 339.256 848.179 339.561 848.513 339.834C848.846 340.107 849.373 340.24 850.093 340.234C850.693 340.229 851.168 340.117 851.518 339.898C851.88 339.678 852.062 339.383 852.065 339.011C852.068 338.687 851.932 338.43 851.658 338.241C851.396 338.051 850.941 337.929 850.293 337.875L849.43 337.792C848.339 337.682 847.502 337.377 846.918 336.878C846.334 336.379 846.046 335.71 846.053 334.87C846.059 334.198 846.232 333.632 846.571 333.174C846.911 332.715 847.376 332.369 847.966 332.135C848.568 331.89 849.253 331.764 850.021 331.758C851.221 331.747 852.191 332.003 852.93 332.524C853.67 333.046 854.053 333.816 854.081 334.836L851.831 334.855C851.809 334.52 851.644 334.233 851.334 333.996C851.024 333.759 850.575 333.643 849.987 333.648C849.459 333.652 849.05 333.758 848.761 333.964C848.471 334.171 848.325 334.436 848.322 334.76C848.319 335.072 848.431 335.311 848.658 335.477C848.896 335.643 849.279 335.754 849.807 335.809L850.67 335.891C851.821 336.001 852.718 336.312 853.362 336.822C854.017 337.332 854.341 338.025 854.334 338.901C854.329 339.549 854.144 340.115 853.78 340.598C853.428 341.069 852.933 341.439 852.294 341.709C851.656 341.978 850.905 342.117 850.041 342.124ZM862.298 341.711L862.323 338.813L861.909 338.817L861.936 335.595C861.941 335.031 861.806 334.612 861.533 334.339C861.259 334.065 860.834 333.931 860.258 333.936C859.958 333.939 859.598 333.948 859.178 333.963C858.758 333.979 858.332 334.001 857.9 334.029C857.48 334.044 857.102 334.065 856.765 334.092L856.783 331.968C857.06 331.942 857.372 331.915 857.72 331.888C858.068 331.861 858.422 331.846 858.782 331.843C859.154 331.828 859.502 331.819 859.826 331.816C860.834 331.807 861.667 331.932 862.325 332.19C862.995 332.448 863.495 332.858 863.826 333.419C864.17 333.98 864.337 334.716 864.33 335.628L864.278 341.694L862.298 341.711ZM859.146 341.991C858.438 341.997 857.815 341.876 857.278 341.629C856.752 341.382 856.341 341.025 856.045 340.56C855.761 340.095 855.621 339.532 855.627 338.872C855.633 338.152 855.812 337.562 856.164 337.103C856.528 336.644 857.029 336.298 857.667 336.064C858.317 335.831 859.073 335.71 859.937 335.703L862.205 335.683L862.193 337.177L859.889 337.197C859.313 337.202 858.868 337.35 858.553 337.64C858.251 337.919 858.098 338.28 858.094 338.724C858.09 339.168 858.237 339.527 858.535 339.8C858.845 340.074 859.287 340.208 859.863 340.203C860.211 340.2 860.53 340.137 860.819 340.014C861.12 339.88 861.368 339.662 861.562 339.36C861.769 339.046 861.886 338.625 861.915 338.097L862.521 338.794C862.455 339.478 862.282 340.056 862.002 340.526C861.734 340.996 861.359 341.359 860.877 341.616C860.407 341.86 859.83 341.985 859.146 341.991ZM867.084 341.669L867.195 328.53L869.697 328.508L869.586 341.648L867.084 341.669ZM865.956 330.413L865.972 328.541L869.697 328.508L869.682 330.38L865.956 330.413ZM876.813 341.926C875.973 341.934 875.236 341.796 874.603 341.514C873.981 341.231 873.463 340.852 873.047 340.375C872.643 339.887 872.336 339.344 872.125 338.746C871.926 338.148 871.829 337.536 871.834 336.912L871.837 336.57C871.843 335.922 871.95 335.298 872.159 334.696C872.38 334.082 872.697 333.539 873.109 333.068C873.533 332.584 874.052 332.202 874.666 331.92C875.281 331.627 875.99 331.477 876.794 331.47C877.85 331.46 878.73 331.687 879.434 332.149C880.15 332.598 880.685 333.2 881.038 333.952C881.392 334.693 881.565 335.496 881.558 336.36L881.55 337.26L872.893 337.335L872.906 335.805L879.997 335.743L879.217 336.506C879.222 335.882 879.137 335.349 878.96 334.906C878.784 334.464 878.511 334.124 878.141 333.888C877.783 333.651 877.328 333.535 876.776 333.54C876.224 333.544 875.755 333.675 875.369 333.93C874.983 334.185 874.686 334.554 874.478 335.036C874.282 335.505 874.181 336.07 874.176 336.73C874.17 337.342 874.262 337.887 874.45 338.365C874.638 338.832 874.929 339.201 875.322 339.474C875.716 339.734 876.219 339.862 876.831 339.856C877.443 339.851 877.942 339.727 878.328 339.483C878.714 339.228 878.962 338.92 879.073 338.559L881.377 338.539C881.228 339.212 880.947 339.803 880.534 340.31C880.122 340.818 879.597 341.212 878.959 341.494C878.332 341.775 877.617 341.919 876.813 341.926ZM887.147 341.8C885.803 341.812 884.75 341.539 883.987 340.982C883.235 340.412 882.846 339.624 882.819 338.616L885.069 338.597C885.102 338.932 885.285 339.237 885.619 339.51C885.952 339.783 886.479 339.916 887.199 339.91C887.799 339.905 888.274 339.793 888.624 339.573C888.986 339.354 889.168 339.059 889.171 338.687C889.174 338.363 889.038 338.106 888.764 337.916C888.502 337.727 888.047 337.605 887.399 337.55L886.536 337.468C885.445 337.357 884.608 337.053 884.024 336.554C883.44 336.055 883.152 335.386 883.159 334.546C883.165 333.874 883.338 333.308 883.678 332.849C884.017 332.391 884.482 332.044 885.072 331.811C885.674 331.566 886.359 331.44 887.127 331.433C888.327 331.423 889.297 331.678 890.036 332.2C890.776 332.721 891.159 333.492 891.187 334.512L888.937 334.531C888.916 334.196 888.75 333.909 888.44 333.672C888.13 333.434 887.681 333.318 887.093 333.324C886.565 333.328 886.156 333.434 885.867 333.64C885.577 333.847 885.431 334.112 885.428 334.436C885.425 334.748 885.537 334.987 885.764 335.153C886.002 335.319 886.385 335.429 886.913 335.485L887.776 335.567C888.927 335.677 889.824 335.987 890.468 336.498C891.123 337.008 891.447 337.701 891.44 338.577C891.435 339.225 891.25 339.791 890.886 340.274C890.534 340.745 890.039 341.115 889.4 341.384C888.762 341.654 888.011 341.793 887.147 341.8ZM901.614 341.494C900.714 341.502 899.971 341.394 899.385 341.171C898.811 340.936 898.382 340.544 898.099 339.995C897.816 339.433 897.678 338.678 897.686 337.731L897.779 328.875L900.119 328.854L900.025 337.872C900.021 338.352 900.144 338.723 900.393 338.985C900.655 339.234 901.026 339.357 901.506 339.353L903.036 339.34L903.018 341.482L901.614 341.494ZM896.174 333.478L896.19 331.642L903.102 331.582L903.086 333.418L896.174 333.478ZM905.119 341.337L905.23 328.198L907.732 328.176L907.667 335.844L907.235 335.847C907.243 334.863 907.376 334.028 907.634 333.342C907.892 332.656 908.268 332.131 908.763 331.766C909.271 331.402 909.908 331.216 910.676 331.21L910.784 331.209C911.9 331.199 912.743 331.576 913.312 332.339C913.882 333.102 914.16 334.215 914.148 335.679L914.1 341.259L911.599 341.281L911.648 335.467C911.653 334.843 911.477 334.352 911.12 333.996C910.775 333.639 910.315 333.463 909.739 333.468C909.127 333.473 908.627 333.681 908.24 334.093C907.864 334.492 907.674 335.016 907.669 335.664L907.621 341.315L905.119 341.337ZM917.258 341.231L917.341 331.457L919.843 331.436L919.76 341.209L917.258 341.231ZM915.957 333.341L915.973 331.469L919.843 331.436L919.827 333.308L915.957 333.341ZM918.269 330.28C917.777 330.284 917.412 330.161 917.174 329.911C916.948 329.649 916.837 329.326 916.84 328.942C916.844 328.534 916.961 328.203 917.191 327.949C917.433 327.695 917.8 327.566 918.292 327.562C918.784 327.557 919.143 327.68 919.369 327.93C919.595 328.18 919.706 328.509 919.702 328.917C919.699 329.301 919.582 329.626 919.352 329.892C919.122 330.146 918.761 330.275 918.269 330.28ZM926.187 341.459C924.843 341.471 923.789 341.198 923.026 340.641C922.275 340.071 921.886 339.283 921.858 338.275L924.108 338.256C924.141 338.591 924.325 338.896 924.658 339.169C924.992 339.442 925.519 339.575 926.239 339.569C926.839 339.564 927.314 339.451 927.663 339.232C928.025 339.013 928.208 338.718 928.211 338.346C928.214 338.022 928.078 337.765 927.803 337.575C927.541 337.386 927.086 337.264 926.439 337.209L925.576 337.127C924.485 337.016 923.647 336.712 923.064 336.213C922.48 335.714 922.192 335.045 922.199 334.205C922.204 333.533 922.377 332.967 922.717 332.508C923.057 332.049 923.522 331.703 924.112 331.47C924.714 331.225 925.399 331.099 926.167 331.092C927.367 331.082 928.336 331.337 929.076 331.859C929.815 332.38 930.199 333.151 930.226 334.171L927.976 334.19C927.955 333.854 927.789 333.568 927.48 333.331C927.17 333.093 926.721 332.977 926.133 332.983C925.605 332.987 925.196 333.093 924.906 333.299C924.616 333.506 924.47 333.771 924.467 334.095C924.465 334.407 924.577 334.646 924.803 334.812C925.042 334.978 925.425 335.088 925.952 335.144L926.816 335.226C927.966 335.336 928.864 335.646 929.507 336.157C930.163 336.667 930.487 337.36 930.48 338.236C930.474 338.884 930.289 339.449 929.925 339.933C929.573 340.404 929.078 340.774 928.44 341.043C927.802 341.313 927.051 341.452 926.187 341.459ZM936.407 341.064L936.489 331.29L938.469 331.273L938.434 335.467L938.254 335.468C938.262 334.484 938.395 333.661 938.653 332.999C938.91 332.325 939.287 331.818 939.782 331.477C940.288 331.125 940.914 330.946 941.658 330.939L941.766 330.938C942.522 330.932 943.144 331.1 943.633 331.444C944.135 331.775 944.502 332.276 944.737 332.946C944.983 333.604 945.102 334.425 945.094 335.409L944.464 335.414C944.472 334.43 944.605 333.607 944.863 332.945C945.132 332.271 945.514 331.763 946.009 331.423C946.516 331.071 947.142 330.891 947.886 330.885L947.994 330.884C948.75 330.877 949.378 331.046 949.879 331.389C950.38 331.721 950.754 332.221 951 332.891C951.259 333.549 951.384 334.37 951.375 335.354L951.328 340.934L948.826 340.955L948.875 335.142C948.881 334.53 948.729 334.045 948.42 333.688C948.111 333.318 947.669 333.136 947.093 333.141C946.517 333.146 946.053 333.342 945.702 333.729C945.351 334.104 945.172 334.61 945.167 335.246L945.118 340.988L942.616 341.01L942.666 335.196C942.671 334.584 942.519 334.099 942.21 333.742C941.901 333.373 941.459 333.191 940.883 333.196C940.307 333.201 939.843 333.397 939.492 333.784C939.141 334.159 938.963 334.664 938.957 335.3L938.909 341.042L936.407 341.064ZM958.697 341.211C957.833 341.219 957.072 341.087 956.414 340.817C955.757 340.547 955.202 340.18 954.75 339.716C954.298 339.24 953.954 338.703 953.719 338.105C953.497 337.507 953.388 336.884 953.393 336.236L953.397 335.858C953.402 335.186 953.528 334.549 953.773 333.947C954.03 333.333 954.388 332.79 954.848 332.318C955.32 331.834 955.888 331.457 956.55 331.187C957.212 330.905 957.957 330.761 958.785 330.753C959.613 330.746 960.356 330.878 961.014 331.148C961.671 331.406 962.226 331.773 962.678 332.249C963.142 332.713 963.492 333.25 963.726 333.86C963.961 334.458 964.076 335.093 964.07 335.765L964.067 336.143C964.061 336.791 963.936 337.416 963.691 338.018C963.458 338.62 963.111 339.163 962.651 339.647C962.191 340.119 961.63 340.496 960.968 340.777C960.306 341.059 959.549 341.204 958.697 341.211ZM958.715 339.069C959.327 339.064 959.844 338.927 960.266 338.66C960.688 338.38 961.009 338.011 961.229 337.553C961.449 337.084 961.562 336.555 961.567 335.967C961.572 335.367 961.462 334.84 961.238 334.386C961.026 333.92 960.705 333.556 960.276 333.296C959.858 333.024 959.355 332.89 958.767 332.895C958.179 332.901 957.668 333.043 957.234 333.323C956.811 333.59 956.484 333.959 956.252 334.429C956.02 334.887 955.902 335.416 955.897 336.016C955.892 336.604 955.995 337.131 956.207 337.597C956.432 338.051 956.753 338.414 957.17 338.687C957.588 338.947 958.103 339.075 958.715 339.069ZM966.218 340.803L966.301 331.03L968.281 331.013L968.245 335.206L968.065 335.208C968.074 334.212 968.213 333.383 968.482 332.721C968.752 332.046 969.146 331.539 969.665 331.198C970.196 330.858 970.851 330.684 971.631 330.677L971.739 330.676C972.903 330.666 973.782 331.036 974.376 331.787C974.969 332.526 975.26 333.639 975.247 335.127L975.2 340.725L972.698 340.747L972.747 334.933C972.752 334.333 972.582 333.849 972.237 333.48C971.905 333.111 971.438 332.929 970.838 332.934C970.226 332.939 969.727 333.136 969.339 333.523C968.964 333.898 968.774 334.404 968.769 335.04L968.72 340.782L966.218 340.803ZM982.136 340.79C981.236 340.798 980.493 340.691 979.907 340.468C979.333 340.233 978.905 339.841 978.621 339.291C978.338 338.73 978.2 337.975 978.209 337.027L978.302 328.171L980.642 328.151L980.547 337.169C980.543 337.649 980.666 338.02 980.916 338.281C981.177 338.531 981.548 338.654 982.028 338.65L983.558 338.636L983.54 340.778L982.136 340.79ZM976.697 332.775L976.712 330.939L983.624 330.878L983.608 332.714L976.697 332.775ZM985.641 340.634L985.752 327.494L988.254 327.472L988.189 335.14L987.757 335.144C987.766 334.16 987.899 333.325 988.157 332.639C988.414 331.953 988.791 331.427 989.286 331.063C989.793 330.699 990.43 330.513 991.198 330.506L991.306 330.505C992.422 330.496 993.265 330.872 993.834 331.635C994.404 332.398 994.682 333.512 994.67 334.976L994.623 340.555L992.121 340.577L992.17 334.763C992.175 334.139 992 333.649 991.643 333.292C991.298 332.935 990.837 332.759 990.261 332.764C989.649 332.77 989.15 332.978 988.762 333.389C988.387 333.789 988.196 334.312 988.191 334.96L988.143 340.612L985.641 340.634Z" fill="#040447"/>
<line opacity="0.2" y1="-0.215919" x2="164.662" y2="-0.215919" transform="matrix(0.00175077 -0.999998 0.999997 0.00262711 849.888 517.321)" stroke="#1D1E25" stroke-width="0.431838" stroke-dasharray="1.73 2.59"/>
<line opacity="0.2" y1="-0.215919" x2="164.662" y2="-0.215919" transform="matrix(0.00175077 -0.999998 0.999997 0.00262711 956.447 517.601)" stroke="#1D1E25" stroke-width="0.431838" stroke-dasharray="1.73 2.59"/>
<line opacity="0.2" y1="-0.215919" x2="164.662" y2="-0.215919" transform="matrix(0.00175077 -0.999998 0.999997 0.00262711 828.746 517.266)" stroke="#1D1E25" stroke-width="0.431838" stroke-dasharray="1.73 2.59"/>
<line opacity="0.2" y1="-0.215919" x2="164.662" y2="-0.215919" transform="matrix(0.00175077 -0.999998 0.999997 0.00262711 913.739 517.49)" stroke="#1D1E25" stroke-width="0.431838" stroke-dasharray="1.73 2.59"/>
<line opacity="0.2" y1="-0.215919" x2="164.662" y2="-0.215919" transform="matrix(0.00175077 -0.999998 0.999997 0.00262711 807.604 517.21)" stroke="#1D1E25" stroke-width="0.431838" stroke-dasharray="1.73 2.59"/>
<line opacity="0.2" y1="-0.215919" x2="164.662" y2="-0.215919" transform="matrix(0.00175077 -0.999998 0.999997 0.00262711 871.455 517.379)" stroke="#1D1E25" stroke-width="0.431838" stroke-dasharray="1.73 2.59"/>
<line opacity="0.2" y1="-0.215919" x2="164.662" y2="-0.215919" transform="matrix(0.00175077 -0.999998 0.999997 0.00262711 892.599 517.434)" stroke="#1D1E25" stroke-width="0.431838" stroke-dasharray="1.73 2.59"/>
<line opacity="0.2" y1="-0.215919" x2="164.662" y2="-0.215919" transform="matrix(0.00175077 -0.999998 0.999997 0.00262711 977.588 517.657)" stroke="#1D1E25" stroke-width="0.431838" stroke-dasharray="1.73 2.59"/>
<line opacity="0.2" y1="-0.215919" x2="164.662" y2="-0.215919" transform="matrix(0.00175077 -0.999998 0.999997 0.00262711 934.881 517.545)" stroke="#1D1E25" stroke-width="0.431838" stroke-dasharray="1.73 2.59"/>
<line opacity="0.2" y1="-0.215919" x2="164.662" y2="-0.215919" transform="matrix(0.00175077 -0.999998 0.999997 0.00262711 998.731 517.713)" stroke="#1D1E25" stroke-width="0.431838" stroke-dasharray="1.73 2.59"/>
<path d="M803.028 475.698C808.405 475.542 814.119 472.066 819.378 468.866C820.223 468.353 821.057 467.839 821.885 467.33C827.619 463.801 833.006 460.486 838.854 458.876C841.694 458.015 844.667 457.56 847.71 457.095C851.184 456.563 854.751 456.017 858.319 454.836C860.388 454.209 862.528 453.324 864.691 452.43C868.887 450.695 873.167 448.925 877.179 448.935C881.435 448.947 885.441 450.613 889.515 452.308C891.844 453.276 894.195 454.254 896.627 454.937C902.703 457.184 909.392 457.202 915.482 452.011C918.299 449.985 921.117 447.038 923.891 444.137C927.711 440.143 931.444 436.239 934.97 434.955C939.439 433.725 943.632 435.978 947.915 438.28C950.045 439.425 952.197 440.582 954.416 441.328C957.455 442.266 960.647 442.275 963.84 442.283C967.032 442.291 970.224 442.3 973.263 443.237C976.078 444.028 978.892 445.543 981.66 447.035C985.466 449.085 989.187 451.089 992.707 451.099C996.051 451.107 999.246 449.628 1002.44 448.149C1002.8 447.981 1003.17 447.812 1003.53 447.646" stroke="#FFC107" stroke-width="4.31838" stroke-linecap="round"/>
<path d="M949.276 537.344C948.838 537.343 948.453 537.264 948.119 537.108C947.785 536.946 947.526 536.721 947.343 536.432C947.159 536.144 947.067 535.807 947.068 535.421L947.975 535.423C947.975 535.642 948.026 535.844 948.129 536.028C948.233 536.207 948.379 536.351 948.569 536.461C948.765 536.565 949.001 536.618 949.277 536.619C949.519 536.619 949.726 536.58 949.899 536.499C950.078 536.419 950.213 536.31 950.306 536.172C950.398 536.029 950.444 535.865 950.445 535.68C950.445 535.485 950.399 535.32 950.307 535.188C950.221 535.049 950.1 534.934 949.945 534.841C949.79 534.749 949.606 534.665 949.393 534.589C949.186 534.514 948.961 534.438 948.72 534.363C948.213 534.2 947.842 533.995 947.607 533.747C947.371 533.493 947.253 533.167 947.254 532.77C947.255 532.43 947.333 532.137 947.489 531.89C947.651 531.637 947.878 531.442 948.172 531.304C948.466 531.161 948.809 531.09 949.2 531.091C949.598 531.092 949.94 531.165 950.228 531.31C950.521 531.454 950.751 531.653 950.918 531.907C951.084 532.161 951.17 532.458 951.175 532.798L950.26 532.795C950.26 532.64 950.22 532.487 950.14 532.337C950.059 532.187 949.938 532.066 949.777 531.973C949.616 531.875 949.418 531.826 949.182 531.825C948.986 531.819 948.81 531.85 948.655 531.919C948.499 531.987 948.375 532.088 948.283 532.22C948.196 532.352 948.153 532.51 948.152 532.695C948.152 532.879 948.192 533.029 948.273 533.144C948.353 533.254 948.465 533.349 948.609 533.43C948.758 533.511 948.934 533.586 949.135 533.656C949.337 533.72 949.558 533.792 949.8 533.874C950.093 533.972 950.358 534.094 950.594 534.238C950.83 534.377 951.014 534.559 951.146 534.784C951.284 535.003 951.352 535.285 951.352 535.631C951.351 535.93 951.273 536.209 951.117 536.468C950.961 536.727 950.73 536.939 950.425 537.105C950.119 537.266 949.736 537.345 949.276 537.344ZM954.317 537.357C953.908 537.356 953.546 537.257 953.23 537.061C952.913 536.864 952.666 536.59 952.488 536.238C952.31 535.881 952.222 535.463 952.223 534.985C952.223 534.513 952.311 534.099 952.484 533.742C952.663 533.38 952.911 533.101 953.228 532.907C953.551 532.706 953.922 532.606 954.343 532.607C954.78 532.608 955.149 532.707 955.448 532.904C955.753 533.1 955.982 533.366 956.137 533.7C956.292 534.029 956.369 534.395 956.369 534.798C956.369 534.855 956.368 534.916 956.368 534.979C956.368 535.042 956.362 535.111 956.351 535.186L952.853 535.177L952.854 534.572L955.514 534.579C955.503 534.176 955.386 533.868 955.161 533.654C954.937 533.435 954.661 533.325 954.333 533.324C954.103 533.323 953.892 533.38 953.702 533.495C953.512 533.604 953.359 533.768 953.244 533.986C953.128 534.205 953.07 534.481 953.069 534.815L953.069 535.057C953.068 535.402 953.123 535.693 953.231 535.929C953.346 536.16 953.496 536.336 953.68 536.457C953.869 536.579 954.082 536.64 954.318 536.641C954.612 536.641 954.843 536.587 955.01 536.478C955.177 536.369 955.301 536.214 955.382 536.013L956.246 536.015C956.17 536.268 956.043 536.498 955.864 536.705C955.691 536.906 955.475 537.067 955.216 537.187C954.956 537.301 954.657 537.358 954.317 537.357ZM957.364 539.162L957.375 532.719L958.153 532.721L958.238 533.395C958.325 533.251 958.437 533.122 958.575 533.007C958.714 532.892 958.878 532.8 959.068 532.732C959.258 532.658 959.48 532.621 959.733 532.621C960.142 532.622 960.499 532.727 960.804 532.935C961.114 533.143 961.353 533.426 961.519 533.783C961.691 534.141 961.777 534.55 961.776 535.01C961.775 535.465 961.685 535.871 961.506 536.228C961.333 536.584 961.091 536.866 960.779 537.072C960.474 537.273 960.122 537.373 959.725 537.372C959.38 537.371 959.08 537.304 958.827 537.171C958.574 537.032 958.376 536.841 958.232 536.599L958.228 539.164L957.364 539.162ZM959.571 536.62C959.824 536.62 960.049 536.558 960.245 536.432C960.441 536.3 960.597 536.113 960.712 535.871C960.834 535.624 960.895 535.333 960.895 535C960.896 534.666 960.836 534.378 960.715 534.135C960.601 533.893 960.445 533.706 960.25 533.573C960.054 533.44 959.83 533.373 959.577 533.372C959.306 533.372 959.07 533.437 958.868 533.569C958.672 533.701 958.519 533.888 958.409 534.129C958.3 534.371 958.244 534.659 958.244 534.993C958.243 535.327 958.297 535.615 958.406 535.857C958.515 536.099 958.668 536.286 958.863 536.419C959.064 536.552 959.3 536.619 959.571 536.62Z" fill="#808D9E"/>
<path d="M857.436 536.999L857.446 530.954L858.465 530.956L860.419 535.072L862.369 530.966L863.397 530.969L863.386 537.015L862.523 537.013L862.53 532.496L860.745 536.213L860.08 536.212L858.307 532.51L858.299 537.002L857.436 536.999ZM866.079 537.126C865.728 537.125 865.437 537.061 865.207 536.933C864.977 536.806 864.805 536.636 864.69 536.422C864.575 536.203 864.518 535.97 864.518 535.722C864.519 535.434 864.594 535.187 864.744 534.98C864.894 534.768 865.105 534.607 865.376 534.498C865.652 534.384 865.98 534.327 866.36 534.328L867.466 534.331C867.466 534.055 867.435 533.827 867.372 533.648C867.315 533.464 867.214 533.326 867.071 533.233C866.927 533.141 866.731 533.094 866.484 533.093C866.242 533.093 866.037 533.15 865.87 533.264C865.703 533.379 865.596 533.552 865.55 533.782L864.686 533.78C864.721 533.48 864.822 533.227 864.989 533.02C865.157 532.808 865.37 532.647 865.629 532.538C865.895 532.43 866.18 532.376 866.485 532.376C866.899 532.378 867.242 532.45 867.512 532.595C867.788 532.74 867.992 532.945 868.124 533.21C868.262 533.469 868.331 533.78 868.33 534.143L868.325 537.028L867.574 537.026L867.506 536.283C867.448 536.398 867.373 536.507 867.281 536.611C867.194 536.714 867.09 536.806 866.969 536.886C866.854 536.961 866.721 537.018 866.572 537.058C866.422 537.103 866.258 537.126 866.079 537.126ZM866.236 536.426C866.409 536.427 866.567 536.39 866.711 536.315C866.861 536.235 866.991 536.129 867.1 535.997C867.21 535.865 867.294 535.715 867.352 535.548C867.415 535.376 867.45 535.197 867.456 535.013L867.456 534.944L866.446 534.941C866.204 534.941 866.008 534.972 865.858 535.035C865.708 535.092 865.599 535.178 865.53 535.293C865.46 535.402 865.426 535.529 865.425 535.673C865.425 535.823 865.456 535.955 865.52 536.07C865.583 536.18 865.675 536.267 865.796 536.33C865.922 536.394 866.069 536.426 866.236 536.426ZM869.529 537.031L869.537 532.488L870.314 532.49L870.382 533.311C870.492 533.104 870.63 532.934 870.797 532.802C870.965 532.665 871.166 532.561 871.403 532.493C871.639 532.425 871.904 532.391 872.197 532.391L872.196 533.298L871.686 533.297C871.519 533.297 871.358 533.319 871.202 533.365C871.053 533.405 870.917 533.473 870.796 533.571C870.675 533.669 870.577 533.801 870.502 533.968C870.432 534.134 870.397 534.347 870.397 534.606L870.393 537.033L869.529 537.031Z" fill="#808D9E"/>
<path d="M903.373 536.965C902.94 536.964 902.567 536.883 902.254 536.722C901.941 536.555 901.698 536.314 901.525 536C901.352 535.687 901.266 535.313 901.267 534.88L902.277 534.882C902.277 535.109 902.313 535.313 902.386 535.493C902.459 535.673 902.572 535.817 902.725 535.924C902.885 536.024 903.095 536.075 903.355 536.075C903.608 536.076 903.812 536.026 903.965 535.927C904.119 535.827 904.229 535.694 904.296 535.528C904.363 535.355 904.397 535.158 904.397 534.938L904.406 529.848L905.406 529.851L905.397 534.941C905.396 535.587 905.215 536.087 904.854 536.439C904.494 536.792 904 536.967 903.373 536.965ZM908.739 536.979C908.345 536.978 908.006 536.904 907.719 536.757C907.433 536.603 907.21 536.372 907.05 536.065C906.891 535.758 906.812 535.374 906.812 534.914L906.818 531.634L907.818 531.637L907.813 534.807C907.812 535.247 907.918 535.577 908.131 535.798C908.344 536.018 908.637 536.129 909.01 536.13C909.264 536.131 909.49 536.075 909.691 535.962C909.891 535.849 910.051 535.683 910.171 535.463C910.292 535.237 910.352 534.96 910.353 534.634L910.358 531.644L911.358 531.646L911.349 536.866L910.459 536.864L910.39 536.034C910.25 536.333 910.036 536.566 909.749 536.732C909.462 536.898 909.125 536.98 908.739 536.979ZM912.747 536.87L912.756 531.65L913.646 531.652L913.705 532.482C913.859 532.189 914.079 531.96 914.366 531.794C914.653 531.622 914.99 531.536 915.377 531.537C915.77 531.538 916.11 531.615 916.396 531.769C916.682 531.924 916.902 532.157 917.055 532.471C917.214 532.778 917.294 533.162 917.293 533.622L917.287 536.882L916.297 536.879L916.303 533.719C916.303 533.286 916.197 532.959 915.984 532.738C915.771 532.511 915.478 532.397 915.105 532.396C914.858 532.395 914.632 532.452 914.425 532.564C914.218 532.677 914.054 532.847 913.934 533.073C913.813 533.293 913.753 533.566 913.752 533.893L913.747 536.873L912.747 536.87Z" fill="#D09123"/>
<path d="M986.783 537.601L986.794 531.556L988.426 531.56C989.129 531.562 989.707 531.687 990.161 531.936C990.622 532.185 990.961 532.537 991.179 532.992C991.403 533.442 991.514 533.978 991.513 534.599C991.512 535.221 991.398 535.756 991.173 536.205C990.954 536.654 990.613 537.001 990.152 537.247C989.697 537.488 989.118 537.607 988.416 537.606L986.783 537.601ZM987.648 536.878L988.382 536.88C988.935 536.881 989.376 536.79 989.704 536.607C990.033 536.424 990.266 536.162 990.405 535.823C990.55 535.478 990.622 535.069 990.623 534.597C990.624 534.119 990.553 533.707 990.409 533.361C990.272 533.016 990.039 532.75 989.711 532.565C989.383 532.38 988.943 532.287 988.39 532.285L987.656 532.283L987.648 536.878ZM994.46 537.725C994.051 537.724 993.689 537.625 993.372 537.429C993.056 537.232 992.809 536.958 992.631 536.606C992.453 536.249 992.365 535.831 992.366 535.353C992.366 534.881 992.454 534.467 992.627 534.11C992.806 533.748 993.054 533.469 993.371 533.274C993.694 533.074 994.065 532.974 994.486 532.975C994.923 532.976 995.292 533.075 995.591 533.271C995.896 533.468 996.125 533.733 996.28 534.068C996.435 534.396 996.512 534.762 996.512 535.165C996.511 535.223 996.511 535.283 996.511 535.347C996.511 535.41 996.505 535.479 996.494 535.554L992.996 535.545L992.997 534.94L995.657 534.947C995.646 534.544 995.529 534.236 995.304 534.022C995.08 533.803 994.804 533.693 994.476 533.692C994.246 533.691 994.035 533.748 993.845 533.863C993.655 533.972 993.502 534.135 993.387 534.354C993.271 534.572 993.213 534.849 993.212 535.183L993.212 535.424C993.211 535.77 993.265 536.061 993.374 536.297C993.489 536.528 993.639 536.704 993.823 536.825C994.012 536.947 994.225 537.008 994.461 537.008C994.755 537.009 994.986 536.955 995.153 536.846C995.32 536.737 995.444 536.582 995.525 536.38L996.389 536.383C996.313 536.636 996.186 536.866 996.007 537.073C995.834 537.274 995.618 537.434 995.359 537.555C995.099 537.669 994.8 537.726 994.46 537.725ZM999.514 537.738C999.094 537.737 998.72 537.638 998.392 537.442C998.064 537.239 997.808 536.959 997.625 536.602C997.441 536.244 997.349 535.835 997.35 535.375C997.351 534.897 997.444 534.48 997.629 534.123C997.814 533.767 998.07 533.488 998.399 533.287C998.728 533.087 999.102 532.987 999.522 532.988C1000.06 532.99 1000.5 533.135 1000.86 533.423C1001.22 533.707 1001.45 534.09 1001.55 534.574L1000.65 534.572C1000.59 534.307 1000.45 534.102 1000.25 533.957C1000.04 533.807 999.794 533.732 999.512 533.731C999.265 533.73 999.043 533.793 998.847 533.919C998.657 534.04 998.507 534.22 998.397 534.462C998.287 534.704 998.232 535.003 998.231 535.36C998.231 535.625 998.259 535.861 998.316 536.068C998.379 536.276 998.465 536.449 998.575 536.587C998.689 536.72 998.825 536.824 998.98 536.899C999.141 536.969 999.317 537.004 999.507 537.004C999.697 537.005 999.869 536.973 1000.02 536.911C1000.19 536.842 1000.32 536.744 1000.42 536.618C1000.53 536.492 1000.61 536.339 1000.65 536.161L1001.55 536.163C1001.45 536.635 1001.22 537.017 1000.85 537.31C1000.49 537.597 1000.04 537.74 999.514 537.738Z" fill="#808D9E"/>
<path d="M818.705 537.284C818.331 537.283 818.006 537.213 817.73 537.074C817.459 536.929 817.249 536.721 817.1 536.45C816.957 536.179 816.885 535.857 816.886 535.483L817.758 535.485C817.758 535.681 817.789 535.856 817.852 536.012C817.915 536.168 818.013 536.292 818.145 536.384C818.283 536.471 818.465 536.514 818.689 536.515C818.908 536.516 819.084 536.473 819.216 536.387C819.349 536.301 819.441 536.186 819.493 536.042C819.551 535.893 819.58 535.723 819.581 535.533L819.588 531.137L820.452 531.139L820.444 535.535C820.443 536.094 820.287 536.525 819.976 536.829C819.67 537.134 819.246 537.285 818.705 537.284ZM823.148 537.295C822.797 537.295 822.507 537.23 822.276 537.103C822.046 536.976 821.874 536.806 821.759 536.592C821.644 536.373 821.587 536.14 821.588 535.892C821.588 535.604 821.663 535.357 821.813 535.15C821.964 534.937 822.174 534.777 822.445 534.668C822.721 534.554 823.05 534.497 823.43 534.498L824.535 534.501C824.536 534.224 824.504 533.997 824.441 533.818C824.384 533.634 824.284 533.495 824.14 533.403C823.996 533.31 823.8 533.264 823.553 533.263C823.311 533.262 823.106 533.32 822.939 533.434C822.772 533.549 822.665 533.721 822.619 533.952L821.755 533.949C821.79 533.65 821.891 533.397 822.059 533.19C822.226 532.977 822.439 532.817 822.699 532.708C822.964 532.599 823.249 532.545 823.554 532.546C823.969 532.547 824.311 532.62 824.581 532.765C824.858 532.91 825.062 533.114 825.194 533.38C825.331 533.639 825.4 533.95 825.399 534.313L825.394 537.198L824.643 537.196L824.575 536.453C824.517 536.568 824.442 536.677 824.35 536.78C824.263 536.884 824.159 536.976 824.038 537.056C823.923 537.13 823.791 537.188 823.641 537.228C823.491 537.273 823.327 537.296 823.148 537.295ZM823.305 536.596C823.478 536.597 823.636 536.56 823.78 536.485C823.93 536.405 824.06 536.299 824.17 536.167C824.279 536.035 824.363 535.885 824.421 535.718C824.484 535.546 824.519 535.367 824.525 535.183L824.525 535.114L823.515 535.111C823.273 535.111 823.077 535.142 822.928 535.205C822.778 535.262 822.668 535.348 822.599 535.463C822.53 535.572 822.495 535.699 822.495 535.843C822.494 535.992 822.526 536.125 822.589 536.24C822.652 536.35 822.744 536.436 822.865 536.5C822.991 536.564 823.138 536.596 823.305 536.596ZM826.598 537.201L826.606 532.658L827.384 532.66L827.434 533.36C827.561 533.107 827.749 532.911 827.997 532.774C828.244 532.631 828.535 532.559 828.869 532.56C829.209 532.561 829.503 532.628 829.75 532.761C829.997 532.889 830.187 533.085 830.319 533.35C830.457 533.609 830.525 533.938 830.524 534.335L830.519 537.211L829.656 537.209L829.661 534.419C829.661 534.051 829.57 533.771 829.386 533.581C829.202 533.39 828.952 533.295 828.635 533.294C828.422 533.293 828.226 533.342 828.047 533.439C827.874 533.536 827.733 533.68 827.623 533.87C827.519 534.059 827.467 534.29 827.467 534.56L827.462 537.203L826.598 537.201Z" fill="#808D9E"/>
<path d="M890.092 386.073L890.108 376.603L892.496 376.61L892.48 386.079L890.092 386.073ZM886.214 382.491L886.219 380.144L896.353 380.171L896.349 382.518L886.214 382.491Z" fill="#D09123"/>
<path d="M903.942 387.625C902.863 387.623 901.935 387.433 901.161 387.057C900.4 386.668 899.805 386.147 899.377 385.495C898.949 384.843 898.695 384.102 898.613 383.271L901.354 383.278C901.464 383.819 901.754 384.283 902.224 384.672C902.694 385.047 903.268 385.236 903.947 385.237C904.445 385.239 904.881 385.115 905.256 384.867C905.63 384.619 905.921 384.28 906.13 383.852C906.352 383.423 906.463 382.939 906.464 382.399C906.465 381.845 906.355 381.367 906.135 380.965C905.928 380.549 905.637 380.23 905.264 380.008C904.891 379.785 904.462 379.673 903.977 379.672C903.396 379.67 902.883 379.814 902.44 380.104C902.01 380.394 901.705 380.753 901.524 381.181L898.824 381.174L900.085 372.829L908.205 372.851L908.2 375.301L902.157 375.285L901.529 378.482C901.834 378.164 902.243 377.909 902.755 377.717C903.268 377.51 903.843 377.408 904.479 377.41C905.269 377.412 905.954 377.552 906.535 377.83C907.116 378.095 907.6 378.463 907.986 378.935C908.387 379.393 908.684 379.92 908.877 380.515C909.069 381.111 909.165 381.735 909.164 382.385C909.163 383.147 909.03 383.852 908.766 384.502C908.515 385.139 908.155 385.691 907.683 386.161C907.225 386.63 906.678 386.996 906.04 387.257C905.403 387.505 904.704 387.627 903.942 387.625ZM911.091 387.395L911.095 385.339C911.982 384.635 912.842 383.932 913.674 383.228C914.506 382.524 915.255 381.827 915.92 381.136C916.586 380.432 917.106 379.748 917.481 379.084C917.87 378.421 918.065 377.778 918.066 377.155C918.067 376.767 917.998 376.414 917.86 376.095C917.723 375.762 917.508 375.499 917.218 375.304C916.928 375.096 916.54 374.991 916.056 374.99C915.571 374.988 915.163 375.098 914.83 375.319C914.511 375.539 914.268 375.836 914.101 376.21C913.935 376.569 913.851 376.977 913.85 377.434L911.13 377.427C911.159 376.361 911.396 375.469 911.84 374.75C912.299 374.031 912.902 373.5 913.65 373.156C914.398 372.798 915.229 372.62 916.143 372.622C917.167 372.625 918.025 372.821 918.717 373.211C919.422 373.586 919.954 374.1 920.313 374.752C920.686 375.403 920.872 376.151 920.87 376.996C920.869 377.633 920.75 378.255 920.514 378.864C920.291 379.472 919.979 380.067 919.576 380.647C919.174 381.214 918.716 381.76 918.203 382.284C917.689 382.809 917.156 383.313 916.601 383.796C916.06 384.265 915.526 384.707 915 385.121L921.209 385.137L921.205 387.422L911.091 387.395Z" fill="#1D1E25"/>
<path d="M887.691 404.571L887.7 399.121L885.895 399.116L885.896 398.52L890.232 398.532L890.231 399.128L888.426 399.123L888.416 404.573L887.691 404.571ZM892.282 404.686C891.862 404.685 891.491 404.586 891.168 404.39C890.846 404.193 890.596 403.916 890.418 403.559C890.241 403.201 890.152 402.784 890.153 402.306C890.154 401.822 890.244 401.405 890.423 401.054C890.608 400.698 890.862 400.422 891.184 400.227C891.513 400.032 891.887 399.935 892.308 399.936C892.734 399.937 893.105 400.036 893.421 400.233C893.743 400.429 893.993 400.706 894.171 401.064C894.349 401.416 894.438 401.833 894.437 402.317C894.436 402.795 894.343 403.212 894.158 403.569C893.979 403.925 893.728 404.201 893.405 404.396C893.083 404.591 892.708 404.688 892.282 404.686ZM892.283 404.065C892.548 404.065 892.787 404.003 893 403.876C893.214 403.745 893.381 403.549 893.502 403.29C893.629 403.026 893.693 402.701 893.694 402.315C893.695 401.924 893.635 401.598 893.514 401.339C893.394 401.079 893.227 400.886 893.014 400.759C892.807 400.626 892.571 400.559 892.307 400.558C892.047 400.557 891.811 400.623 891.598 400.755C891.385 400.881 891.215 401.073 891.087 401.332C890.96 401.591 890.896 401.916 890.896 402.308C890.895 402.693 890.955 403.019 891.075 403.284C891.202 403.544 891.368 403.74 891.575 403.873C891.788 404 892.024 404.064 892.283 404.065ZM897.077 404.595C896.818 404.595 896.593 404.554 896.403 404.473C896.214 404.392 896.067 404.256 895.964 404.066C895.866 403.87 895.818 403.607 895.818 403.279L895.823 400.662L895.028 400.66L895.029 400.047L895.824 400.049L895.921 398.918L896.551 398.92L896.549 400.051L897.836 400.054L897.835 400.668L896.548 400.664L896.544 403.281C896.543 403.552 896.598 403.736 896.707 403.834C896.816 403.927 897.009 403.973 897.285 403.974L897.812 403.975L897.811 404.597L897.077 404.595ZM900.24 404.707C899.894 404.706 899.607 404.642 899.377 404.515C899.146 404.382 898.974 404.209 898.859 403.996C898.744 403.776 898.687 403.543 898.688 403.295C898.688 402.996 898.764 402.743 898.914 402.536C899.069 402.323 899.286 402.163 899.562 402.054C899.839 401.945 900.161 401.892 900.53 401.893L901.661 401.895C901.662 401.602 901.628 401.357 901.559 401.161C901.49 400.965 901.378 400.818 901.223 400.72C901.068 400.621 900.86 400.572 900.601 400.571C900.342 400.571 900.12 400.636 899.936 400.768C899.751 400.894 899.636 401.084 899.589 401.337L898.847 401.335C898.882 401.036 898.983 400.786 899.15 400.585C899.318 400.378 899.528 400.223 899.782 400.12C900.041 400.011 900.314 399.957 900.602 399.958C901.011 399.959 901.348 400.035 901.612 400.185C901.877 400.33 902.072 400.535 902.199 400.8C902.325 401.059 902.388 401.368 902.387 401.725L902.382 404.609L901.734 404.608L901.692 403.83C901.635 403.951 901.56 404.066 901.467 404.175C901.381 404.279 901.277 404.37 901.156 404.451C901.035 404.531 900.897 404.594 900.741 404.64C900.591 404.685 900.424 404.708 900.24 404.707ZM900.345 404.094C900.535 404.095 900.71 404.052 900.872 403.966C901.033 403.88 901.171 403.766 901.287 403.622C901.408 403.472 901.5 403.306 901.564 403.122C901.628 402.938 901.66 402.745 901.66 402.543L901.66 402.457L900.589 402.454C900.319 402.453 900.097 402.487 899.924 402.556C899.757 402.625 899.636 402.722 899.561 402.849C899.486 402.969 899.448 403.107 899.448 403.263C899.448 403.43 899.482 403.577 899.551 403.704C899.62 403.825 899.72 403.92 899.853 403.989C899.991 404.059 900.155 404.094 900.345 404.094ZM903.581 404.612L903.592 398.394L904.317 398.396L904.306 404.614L903.581 404.612ZM909.835 404.733C909.391 404.731 909.006 404.65 908.678 404.488C908.35 404.326 908.097 404.1 907.919 403.812C907.741 403.524 907.652 403.189 907.653 402.809L908.413 402.811C908.413 403.048 908.467 403.266 908.576 403.468C908.685 403.664 908.843 403.823 909.05 403.945C909.263 404.06 909.525 404.119 909.836 404.119C910.106 404.12 910.337 404.077 910.527 403.992C910.723 403.9 910.87 403.777 910.968 403.621C911.072 403.466 911.124 403.291 911.124 403.095C911.125 402.876 911.076 402.695 910.979 402.55C910.887 402.401 910.757 402.279 910.591 402.187C910.424 402.088 910.231 402.001 910.012 401.926C909.794 401.851 909.558 401.772 909.304 401.691C908.798 401.528 908.43 401.326 908.2 401.084C907.976 400.835 907.864 400.518 907.865 400.133C907.865 399.804 907.941 399.517 908.091 399.27C908.247 399.022 908.466 398.83 908.748 398.693C909.036 398.549 909.376 398.478 909.768 398.479C910.154 398.48 910.487 398.553 910.769 398.698C911.057 398.843 911.281 399.042 911.442 399.296C911.603 399.544 911.683 399.832 911.682 400.16L910.922 400.158C910.923 399.991 910.88 399.827 910.794 399.665C910.707 399.504 910.575 399.371 910.397 399.267C910.224 399.157 910.006 399.102 909.741 399.101C909.522 399.095 909.326 399.132 909.153 399.212C908.986 399.286 908.854 399.395 908.756 399.539C908.663 399.683 908.617 399.858 908.616 400.065C908.616 400.261 908.656 400.42 908.736 400.541C908.823 400.662 908.943 400.766 909.099 400.853C909.26 400.934 909.447 401.009 909.66 401.079C909.873 401.148 910.109 401.227 910.367 401.314C910.661 401.412 910.92 401.534 911.144 401.679C911.374 401.817 911.552 401.996 911.679 402.215C911.811 402.435 911.876 402.714 911.876 403.054C911.875 403.342 911.797 403.615 911.641 403.874C911.491 404.127 911.266 404.333 910.966 404.494C910.667 404.654 910.29 404.734 909.835 404.733ZM914.325 404.744C913.98 404.743 913.692 404.679 913.462 404.552C913.232 404.419 913.059 404.246 912.945 404.033C912.83 403.813 912.773 403.58 912.773 403.332C912.774 403.033 912.849 402.78 912.999 402.573C913.155 402.36 913.371 402.2 913.648 402.091C913.924 401.982 914.247 401.929 914.615 401.93L915.747 401.932C915.747 401.639 915.713 401.394 915.644 401.198C915.575 401.002 915.463 400.855 915.308 400.757C915.153 400.658 914.946 400.609 914.687 400.608C914.427 400.608 914.206 400.673 914.021 400.805C913.837 400.931 913.721 401.121 913.675 401.374L912.932 401.372C912.967 401.073 913.068 400.823 913.236 400.622C913.403 400.415 913.613 400.26 913.867 400.157C914.126 400.048 914.4 399.994 914.688 399.995C915.096 399.996 915.433 400.072 915.698 400.222C915.962 400.367 916.158 400.572 916.284 400.837C916.41 401.096 916.473 401.405 916.472 401.762L916.467 404.646L915.82 404.645L915.778 403.867C915.72 403.988 915.645 404.103 915.553 404.212C915.466 404.316 915.362 404.407 915.241 404.488C915.12 404.568 914.982 404.631 914.826 404.677C914.676 404.722 914.509 404.745 914.325 404.744ZM914.43 404.131C914.62 404.132 914.796 404.089 914.957 404.003C915.118 403.917 915.257 403.803 915.372 403.659C915.493 403.509 915.586 403.343 915.649 403.159C915.713 402.975 915.745 402.782 915.745 402.58L915.746 402.494L914.675 402.491C914.404 402.49 914.182 402.524 914.009 402.593C913.842 402.662 913.721 402.759 913.646 402.886C913.571 403.006 913.533 403.144 913.533 403.3C913.533 403.467 913.567 403.614 913.636 403.741C913.705 403.862 913.806 403.957 913.938 404.026C914.076 404.096 914.24 404.131 914.43 404.131ZM917.666 404.649L917.677 398.431L918.402 398.433L918.391 404.651L917.666 404.649ZM921.497 404.763C921.094 404.762 920.737 404.663 920.426 404.467C920.116 404.27 919.872 403.993 919.694 403.636C919.522 403.278 919.436 402.861 919.437 402.383C919.438 401.905 919.525 401.488 919.698 401.131C919.877 400.775 920.122 400.499 920.434 400.304C920.751 400.109 921.114 400.012 921.522 400.013C921.96 400.014 922.326 400.113 922.619 400.31C922.912 400.506 923.133 400.769 923.282 401.097C923.432 401.426 923.506 401.786 923.505 402.177C923.505 402.235 923.505 402.293 923.505 402.35C923.505 402.408 923.502 402.477 923.496 402.557L919.981 402.548L919.982 401.987L922.797 401.994C922.786 401.551 922.658 401.214 922.41 400.983C922.169 400.746 921.867 400.627 921.504 400.626C921.262 400.626 921.038 400.685 920.83 400.806C920.628 400.92 920.464 401.093 920.337 401.323C920.21 401.553 920.146 401.84 920.145 402.186L920.145 402.428C920.144 402.808 920.207 403.127 920.333 403.387C920.46 403.641 920.623 403.831 920.825 403.958C921.032 404.085 921.256 404.149 921.498 404.15C921.82 404.151 922.074 404.091 922.258 403.971C922.443 403.844 922.578 403.666 922.665 403.436L923.382 403.438C923.312 403.691 923.191 403.918 923.018 404.119C922.851 404.321 922.637 404.478 922.378 404.593C922.125 404.707 921.831 404.764 921.497 404.763ZM926.147 404.775C925.738 404.774 925.399 404.713 925.128 404.591C924.863 404.464 924.662 404.291 924.524 404.072C924.387 403.847 924.304 403.587 924.275 403.294L925.018 403.296C925.041 403.451 925.092 403.595 925.173 403.728C925.259 403.855 925.383 403.959 925.544 404.04C925.705 404.121 925.909 404.162 926.157 404.162C926.352 404.163 926.519 404.134 926.658 404.077C926.796 404.014 926.9 403.928 926.969 403.819C927.044 403.71 927.082 403.583 927.082 403.439C927.082 403.249 927.039 403.102 926.953 402.998C926.873 402.889 926.752 402.808 926.591 402.756C926.436 402.698 926.24 402.654 926.004 402.624C925.751 402.589 925.526 402.54 925.33 402.476C925.135 402.412 924.968 402.328 924.83 402.224C924.698 402.12 924.597 401.99 924.528 401.835C924.46 401.679 924.425 401.495 924.426 401.282C924.426 401.034 924.493 400.815 924.625 400.626C924.758 400.436 924.946 400.29 925.188 400.187C925.435 400.078 925.726 400.024 926.06 400.025C926.55 400.026 926.935 400.14 927.217 400.365C927.504 400.59 927.674 400.91 927.725 401.325L927.008 401.323C926.98 401.11 926.882 400.943 926.715 400.821C926.548 400.7 926.327 400.639 926.051 400.638C925.757 400.637 925.535 400.691 925.385 400.8C925.235 400.909 925.16 401.053 925.16 401.232C925.16 401.364 925.191 401.485 925.254 401.595C925.323 401.699 925.438 401.788 925.599 401.863C925.76 401.933 925.976 401.985 926.247 402.021C926.586 402.062 926.874 402.129 927.11 402.221C927.346 402.308 927.524 402.444 927.645 402.629C927.771 402.813 927.831 403.064 927.825 403.381C927.824 403.68 927.752 403.933 927.608 404.14C927.469 404.347 927.273 404.505 927.02 404.614C926.772 404.722 926.481 404.776 926.147 404.775Z" fill="#808D9E"/>
<g filter="url(#filter0_d_1128_273)">
<ellipse cx="6.16248" cy="6.16248" rx="6.16248" ry="6.16248" transform="matrix(0.999997 0.00262717 -0.0017508 0.999998 928.649 429.863)" fill="#FFC107"/>
<path d="M934.808 431.879C937.107 431.885 938.968 433.754 938.964 436.052C938.96 438.351 937.092 440.21 934.793 440.204C932.495 440.198 930.635 438.329 930.639 436.03C930.643 433.732 932.509 431.873 934.808 431.879Z" stroke="white" stroke-width="4"/>
</g>
<defs>
<filter id="filter0_d_1128_273" x="924.639" y="429.879" width="20.3252" height="20.3251" filterUnits="userSpaceOnUse" color-interpolation-filters="sRGB">
<feFlood flood-opacity="0" result="BackgroundImageFix"/>
<feColorMatrix in="SourceAlpha" type="matrix" values="0 0 0 0 0 0 0 0 0 0 0 0 0 0 0 0 0 0 127 0" result="hardAlpha"/>
<feOffset dy="4"/>
<feGaussianBlur stdDeviation="2"/>
<feComposite in2="hardAlpha" operator="out"/>
<feColorMatrix type="matrix" values="0 0 0 0 0 0 0 0 0 0 0 0 0 0 0 0 0 0 0.25 0"/>
<feBlend mode="normal" in2="BackgroundImageFix" result="effect1_dropShadow_1128_273"/>
<feBlend mode="normal" in="SourceGraphic" in2="effect1_dropShadow_1128_273" result="shape"/>
</filter>
</defs>
</svg>
