<?xml version="1.0" encoding="UTF-8"?><svg id="uuid-726160c4-1cfe-4182-b90c-1ff2afc82c82" xmlns="http://www.w3.org/2000/svg" xmlns:xlink="http://www.w3.org/1999/xlink" viewBox="0 0 128 128"><defs><clipPath id="uuid-e181a678-13f3-4a36-a58e-f6c3101b8a29"><polygon points="128 0 0 0 0 128 128 128 128 0 128 0" style="clip-rule:evenodd; fill:none;"/></clipPath></defs><g id="uuid-96749bd7-c808-401f-beef-dcb494fab8a8"><g style="clip-path:url(#uuid-e181a678-13f3-4a36-a58e-f6c3101b8a29);"><polygon points="3.04 127.52 3.04 125.44 2.08 125.44 2.08 127.52 0 127.52 0 128.48 2.08 128.48 2.08 130.56 3.04 130.56 3.04 128.48 5.12 128.48 5.12 127.52 3.04 127.52 3.04 127.52" style="fill-rule:evenodd;"/><polygon points="20.57 127.52 20.57 125.44 19.61 125.44 19.61 127.52 17.53 127.52 17.53 128.48 19.61 128.48 19.61 130.56 20.57 130.56 20.57 128.48 22.65 128.48 22.65 127.52 20.57 127.52 20.57 127.52" style="fill-rule:evenodd;"/><polygon points="37.66 127.52 37.66 125.44 36.7 125.44 36.7 127.52 34.62 127.52 34.62 128.48 36.7 128.48 36.7 130.56 37.66 130.56 37.66 128.48 39.74 128.48 39.74 127.52 37.66 127.52 37.66 127.52" style="fill-rule:evenodd;"/><polygon points="54.97 127.52 54.97 125.44 54.01 125.44 54.01 127.52 51.93 127.52 51.93 128.48 54.01 128.48 54.01 130.56 54.97 130.56 54.97 128.48 57.05 128.48 57.05 127.52 54.97 127.52 54.97 127.52" style="fill-rule:evenodd;"/><polygon points="72.28 127.52 72.28 125.44 71.32 125.44 71.32 127.52 69.24 127.52 69.24 128.48 71.32 128.48 71.32 130.56 72.28 130.56 72.28 128.48 74.36 128.48 74.36 127.52 72.28 127.52 72.28 127.52" style="fill-rule:evenodd;"/><polygon points="89.59 127.52 89.59 125.44 88.63 125.44 88.63 127.52 86.55 127.52 86.55 128.48 88.63 128.48 88.63 130.56 89.59 130.56 89.59 128.48 91.67 128.48 91.67 127.52 89.59 127.52 89.59 127.52" style="fill-rule:evenodd;"/><polygon points="106.9 127.52 106.9 125.44 105.94 125.44 105.94 127.52 103.86 127.52 103.86 128.48 105.94 128.48 105.94 130.56 106.9 130.56 106.9 128.48 108.98 128.48 108.98 127.52 106.9 127.52 106.9 127.52" style="fill-rule:evenodd;"/><polygon points="124.21 127.52 124.21 125.44 123.25 125.44 123.25 127.52 121.17 127.52 121.17 128.48 123.25 128.48 123.25 130.56 124.21 130.56 124.21 128.48 126.29 128.48 126.29 127.52 124.21 127.52 124.21 127.52" style="fill-rule:evenodd;"/><polygon points="12.24 116.4 12.24 114.32 11.28 114.32 11.28 116.4 9.2 116.4 9.2 117.36 11.28 117.36 11.28 119.44 12.24 119.44 12.24 117.36 14.32 117.36 14.32 116.4 12.24 116.4 12.24 116.4" style="fill-rule:evenodd;"/><polygon points="29.77 116.4 29.77 114.32 28.81 114.32 28.81 116.4 26.73 116.4 26.73 117.36 28.81 117.36 28.81 119.44 29.77 119.44 29.77 117.36 31.85 117.36 31.85 116.4 29.77 116.4 29.77 116.4" style="fill-rule:evenodd;"/><polygon points="46.86 116.4 46.86 114.32 45.9 114.32 45.9 116.4 43.82 116.4 43.82 117.36 45.9 117.36 45.9 119.44 46.86 119.44 46.86 117.36 48.94 117.36 48.94 116.4 46.86 116.4 46.86 116.4" style="fill-rule:evenodd;"/><polygon points="64.17 116.4 64.17 114.32 63.21 114.32 63.21 116.4 61.13 116.4 61.13 117.36 63.21 117.36 63.21 119.44 64.17 119.44 64.17 117.36 66.25 117.36 66.25 116.4 64.17 116.4 64.17 116.4" style="fill-rule:evenodd;"/><polygon points="81.48 116.4 81.48 114.32 80.52 114.32 80.52 116.4 78.44 116.4 78.44 117.36 80.52 117.36 80.52 119.44 81.48 119.44 81.48 117.36 83.56 117.36 83.56 116.4 81.48 116.4 81.48 116.4" style="fill-rule:evenodd;"/><polygon points="98.79 116.4 98.79 114.32 97.83 114.32 97.83 116.4 95.75 116.4 95.75 117.36 97.83 117.36 97.83 119.44 98.79 119.44 98.79 117.36 100.87 117.36 100.87 116.4 98.79 116.4 98.79 116.4" style="fill-rule:evenodd;"/><polygon points="116.1 116.4 116.1 114.32 115.14 114.32 115.14 116.4 113.06 116.4 113.06 117.36 115.14 117.36 115.14 119.44 116.1 119.44 116.1 117.36 118.18 117.36 118.18 116.4 116.1 116.4 116.1 116.4" style="fill-rule:evenodd;"/><polygon points="3.04 104.71 3.04 102.63 2.08 102.63 2.08 104.71 0 104.71 0 105.67 2.08 105.67 2.08 107.75 3.04 107.75 3.04 105.67 5.12 105.67 5.12 104.71 3.04 104.71 3.04 104.71" style="fill-rule:evenodd;"/><polygon points="20.57 104.71 20.57 102.63 19.61 102.63 19.61 104.71 17.53 104.71 17.53 105.67 19.61 105.67 19.61 107.75 20.57 107.75 20.57 105.67 22.65 105.67 22.65 104.71 20.57 104.71 20.57 104.71" style="fill-rule:evenodd;"/><polygon points="37.66 104.71 37.66 102.63 36.7 102.63 36.7 104.71 34.62 104.71 34.62 105.67 36.7 105.67 36.7 107.75 37.66 107.75 37.66 105.67 39.74 105.67 39.74 104.71 37.66 104.71 37.66 104.71" style="fill-rule:evenodd;"/><polygon points="54.97 104.71 54.97 102.63 54.01 102.63 54.01 104.71 51.93 104.71 51.93 105.67 54.01 105.67 54.01 107.75 54.97 107.75 54.97 105.67 57.05 105.67 57.05 104.71 54.97 104.71 54.97 104.71" style="fill-rule:evenodd;"/><polygon points="72.28 104.71 72.28 102.63 71.32 102.63 71.32 104.71 69.24 104.71 69.24 105.67 71.32 105.67 71.32 107.75 72.28 107.75 72.28 105.67 74.36 105.67 74.36 104.71 72.28 104.71 72.28 104.71" style="fill-rule:evenodd;"/><polygon points="89.59 104.71 89.59 102.63 88.63 102.63 88.63 104.71 86.55 104.71 86.55 105.67 88.63 105.67 88.63 107.75 89.59 107.75 89.59 105.67 91.67 105.67 91.67 104.71 89.59 104.71 89.59 104.71" style="fill-rule:evenodd;"/><polygon points="106.9 104.71 106.9 102.63 105.94 102.63 105.94 104.71 103.86 104.71 103.86 105.67 105.94 105.67 105.94 107.75 106.9 107.75 106.9 105.67 108.98 105.67 108.98 104.71 106.9 104.71 106.9 104.71" style="fill-rule:evenodd;"/><polygon points="124.21 104.71 124.21 102.63 123.25 102.63 123.25 104.71 121.17 104.71 121.17 105.67 123.25 105.67 123.25 107.75 124.21 107.75 124.21 105.67 126.29 105.67 126.29 104.71 124.21 104.71 124.21 104.71" style="fill-rule:evenodd;"/><polygon points="12.24 93.59 12.24 91.51 11.28 91.51 11.28 93.59 9.2 93.59 9.2 94.55 11.28 94.55 11.28 96.63 12.24 96.63 12.24 94.55 14.32 94.55 14.32 93.59 12.24 93.59 12.24 93.59" style="fill-rule:evenodd;"/><polygon points="29.77 93.59 29.77 91.51 28.81 91.51 28.81 93.59 26.73 93.59 26.73 94.55 28.81 94.55 28.81 96.63 29.77 96.63 29.77 94.55 31.85 94.55 31.85 93.59 29.77 93.59 29.77 93.59" style="fill-rule:evenodd;"/><polygon points="46.86 93.59 46.86 91.51 45.9 91.51 45.9 93.59 43.82 93.59 43.82 94.55 45.9 94.55 45.9 96.63 46.86 96.63 46.86 94.55 48.94 94.55 48.94 93.59 46.86 93.59 46.86 93.59" style="fill-rule:evenodd;"/><polygon points="64.17 93.59 64.17 91.51 63.21 91.51 63.21 93.59 61.13 93.59 61.13 94.55 63.21 94.55 63.21 96.63 64.17 96.63 64.17 94.55 66.25 94.55 66.25 93.59 64.17 93.59 64.17 93.59" style="fill-rule:evenodd;"/><polygon points="81.48 93.59 81.48 91.51 80.52 91.51 80.52 93.59 78.44 93.59 78.44 94.55 80.52 94.55 80.52 96.63 81.48 96.63 81.48 94.55 83.56 94.55 83.56 93.59 81.48 93.59 81.48 93.59" style="fill-rule:evenodd;"/><polygon points="98.79 93.59 98.79 91.51 97.83 91.51 97.83 93.59 95.75 93.59 95.75 94.55 97.83 94.55 97.83 96.63 98.79 96.63 98.79 94.55 100.87 94.55 100.87 93.59 98.79 93.59 98.79 93.59" style="fill-rule:evenodd;"/><polygon points="116.1 93.59 116.1 91.51 115.14 91.51 115.14 93.59 113.06 93.59 113.06 94.55 115.14 94.55 115.14 96.63 116.1 96.63 116.1 94.55 118.18 94.55 118.18 93.59 116.1 93.59 116.1 93.59" style="fill-rule:evenodd;"/><polygon points="3.04 81.89 3.04 79.81 2.08 79.81 2.08 81.89 0 81.89 0 82.85 2.08 82.85 2.08 84.93 3.04 84.93 3.04 82.85 5.12 82.85 5.12 81.89 3.04 81.89 3.04 81.89" style="fill-rule:evenodd;"/><polygon points="20.57 81.89 20.57 79.81 19.61 79.81 19.61 81.89 17.53 81.89 17.53 82.85 19.61 82.85 19.61 84.93 20.57 84.93 20.57 82.85 22.65 82.85 22.65 81.89 20.57 81.89 20.57 81.89" style="fill-rule:evenodd;"/><polygon points="37.66 81.89 37.66 79.81 36.7 79.81 36.7 81.89 34.62 81.89 34.62 82.85 36.7 82.85 36.7 84.93 37.66 84.93 37.66 82.85 39.74 82.85 39.74 81.89 37.66 81.89 37.66 81.89" style="fill-rule:evenodd;"/><polygon points="54.97 81.89 54.97 79.81 54.01 79.81 54.01 81.89 51.93 81.89 51.93 82.85 54.01 82.85 54.01 84.93 54.97 84.93 54.97 82.85 57.05 82.85 57.05 81.89 54.97 81.89 54.97 81.89" style="fill-rule:evenodd;"/><polygon points="72.28 81.89 72.28 79.81 71.32 79.81 71.32 81.89 69.24 81.89 69.24 82.85 71.32 82.85 71.32 84.93 72.28 84.93 72.28 82.85 74.36 82.85 74.36 81.89 72.28 81.89 72.28 81.89" style="fill-rule:evenodd;"/><polygon points="89.59 81.89 89.59 79.81 88.63 79.81 88.63 81.89 86.55 81.89 86.55 82.85 88.63 82.85 88.63 84.93 89.59 84.93 89.59 82.85 91.67 82.85 91.67 81.89 89.59 81.89 89.59 81.89" style="fill-rule:evenodd;"/><polygon points="106.9 81.89 106.9 79.81 105.94 79.81 105.94 81.89 103.86 81.89 103.86 82.85 105.94 82.85 105.94 84.93 106.9 84.93 106.9 82.85 108.98 82.85 108.98 81.89 106.9 81.89 106.9 81.89" style="fill-rule:evenodd;"/><polygon points="124.21 81.89 124.21 79.81 123.25 79.81 123.25 81.89 121.17 81.89 121.17 82.85 123.25 82.85 123.25 84.93 124.21 84.93 124.21 82.85 126.29 82.85 126.29 81.89 124.21 81.89 124.21 81.89" style="fill-rule:evenodd;"/><polygon points="12.24 70.78 12.24 68.7 11.28 68.7 11.28 70.78 9.2 70.78 9.2 71.74 11.28 71.74 11.28 73.82 12.24 73.82 12.24 71.74 14.32 71.74 14.32 70.78 12.24 70.78 12.24 70.78" style="fill-rule:evenodd;"/><polygon points="29.77 70.78 29.77 68.7 28.81 68.7 28.81 70.78 26.73 70.78 26.73 71.74 28.81 71.74 28.81 73.82 29.77 73.82 29.77 71.74 31.85 71.74 31.85 70.78 29.77 70.78 29.77 70.78" style="fill-rule:evenodd;"/><polygon points="46.86 70.78 46.86 68.7 45.9 68.7 45.9 70.78 43.82 70.78 43.82 71.74 45.9 71.74 45.9 73.82 46.86 73.82 46.86 71.74 48.94 71.74 48.94 70.78 46.86 70.78 46.86 70.78" style="fill-rule:evenodd;"/><polygon points="64.17 70.78 64.17 68.7 63.21 68.7 63.21 70.78 61.13 70.78 61.13 71.74 63.21 71.74 63.21 73.82 64.17 73.82 64.17 71.74 66.25 71.74 66.25 70.78 64.17 70.78 64.17 70.78" style="fill-rule:evenodd;"/><polygon points="81.48 70.78 81.48 68.7 80.52 68.7 80.52 70.78 78.44 70.78 78.44 71.74 80.52 71.74 80.52 73.82 81.48 73.82 81.48 71.74 83.56 71.74 83.56 70.78 81.48 70.78 81.48 70.78" style="fill-rule:evenodd;"/><polygon points="98.79 70.78 98.79 68.7 97.83 68.7 97.83 70.78 95.75 70.78 95.75 71.74 97.83 71.74 97.83 73.82 98.79 73.82 98.79 71.74 100.87 71.74 100.87 70.78 98.79 70.78 98.79 70.78" style="fill-rule:evenodd;"/><polygon points="116.1 70.78 116.1 68.7 115.14 68.7 115.14 70.78 113.06 70.78 113.06 71.74 115.14 71.74 115.14 73.82 116.1 73.82 116.1 71.74 118.18 71.74 118.18 70.78 116.1 70.78 116.1 70.78" style="fill-rule:evenodd;"/><polygon points="3.04 59.08 3.04 57 2.08 57 2.08 59.08 0 59.08 0 60.04 2.08 60.04 2.08 62.12 3.04 62.12 3.04 60.04 5.12 60.04 5.12 59.08 3.04 59.08 3.04 59.08" style="fill-rule:evenodd;"/><polygon points="20.57 59.08 20.57 57 19.61 57 19.61 59.08 17.53 59.08 17.53 60.04 19.61 60.04 19.61 62.12 20.57 62.12 20.57 60.04 22.65 60.04 22.65 59.08 20.57 59.08 20.57 59.08" style="fill-rule:evenodd;"/><polygon points="37.66 59.08 37.66 57 36.7 57 36.7 59.08 34.62 59.08 34.62 60.04 36.7 60.04 36.7 62.12 37.66 62.12 37.66 60.04 39.74 60.04 39.74 59.08 37.66 59.08 37.66 59.08" style="fill-rule:evenodd;"/><polygon points="54.97 59.08 54.97 57 54.01 57 54.01 59.08 51.93 59.08 51.93 60.04 54.01 60.04 54.01 62.12 54.97 62.12 54.97 60.04 57.05 60.04 57.05 59.08 54.97 59.08 54.97 59.08" style="fill-rule:evenodd;"/><polygon points="72.28 59.08 72.28 57 71.32 57 71.32 59.08 69.24 59.08 69.24 60.04 71.32 60.04 71.32 62.12 72.28 62.12 72.28 60.04 74.36 60.04 74.36 59.08 72.28 59.08 72.28 59.08" style="fill-rule:evenodd;"/><polygon points="89.59 59.08 89.59 57 88.63 57 88.63 59.08 86.55 59.08 86.55 60.04 88.63 60.04 88.63 62.12 89.59 62.12 89.59 60.04 91.67 60.04 91.67 59.08 89.59 59.08 89.59 59.08" style="fill-rule:evenodd;"/><polygon points="106.9 59.08 106.9 57 105.94 57 105.94 59.08 103.86 59.08 103.86 60.04 105.94 60.04 105.94 62.12 106.9 62.12 106.9 60.04 108.98 60.04 108.98 59.08 106.9 59.08 106.9 59.08" style="fill-rule:evenodd;"/><polygon points="124.21 59.08 124.21 57 123.25 57 123.25 59.08 121.17 59.08 121.17 60.04 123.25 60.04 123.25 62.12 124.21 62.12 124.21 60.04 126.29 60.04 126.29 59.08 124.21 59.08 124.21 59.08" style="fill-rule:evenodd;"/><polygon points="12.24 47.96 12.24 45.88 11.28 45.88 11.28 47.96 9.2 47.96 9.2 48.92 11.28 48.92 11.28 51 12.24 51 12.24 48.92 14.32 48.92 14.32 47.96 12.24 47.96 12.24 47.96" style="fill-rule:evenodd;"/><polygon points="29.77 47.96 29.77 45.88 28.81 45.88 28.81 47.96 26.73 47.96 26.73 48.92 28.81 48.92 28.81 51 29.77 51 29.77 48.92 31.85 48.92 31.85 47.96 29.77 47.96 29.77 47.96" style="fill-rule:evenodd;"/><polygon points="46.86 47.96 46.86 45.88 45.9 45.88 45.9 47.96 43.82 47.96 43.82 48.92 45.9 48.92 45.9 51 46.86 51 46.86 48.92 48.94 48.92 48.94 47.96 46.86 47.96 46.86 47.96" style="fill-rule:evenodd;"/><polygon points="64.17 47.96 64.17 45.88 63.21 45.88 63.21 47.96 61.13 47.96 61.13 48.92 63.21 48.92 63.21 51 64.17 51 64.17 48.92 66.25 48.92 66.25 47.96 64.17 47.96 64.17 47.96" style="fill-rule:evenodd;"/><polygon points="81.48 47.96 81.48 45.88 80.52 45.88 80.52 47.96 78.44 47.96 78.44 48.92 80.52 48.92 80.52 51 81.48 51 81.48 48.92 83.56 48.92 83.56 47.96 81.48 47.96 81.48 47.96" style="fill-rule:evenodd;"/><polygon points="98.79 47.96 98.79 45.88 97.83 45.88 97.83 47.96 95.75 47.96 95.75 48.92 97.83 48.92 97.83 51 98.79 51 98.79 48.92 100.87 48.92 100.87 47.96 98.79 47.96 98.79 47.96" style="fill-rule:evenodd;"/><polygon points="116.1 47.96 116.1 45.88 115.14 45.88 115.14 47.96 113.06 47.96 113.06 48.92 115.14 48.92 115.14 51 116.1 51 116.1 48.92 118.18 48.92 118.18 47.96 116.1 47.96 116.1 47.96" style="fill-rule:evenodd;"/><polygon points="3.04 36.27 3.04 34.19 2.08 34.19 2.08 36.27 0 36.27 0 37.23 2.08 37.23 2.08 39.31 3.04 39.31 3.04 37.23 5.12 37.23 5.12 36.27 3.04 36.27 3.04 36.27" style="fill-rule:evenodd;"/><polygon points="20.57 36.27 20.57 34.19 19.61 34.19 19.61 36.27 17.53 36.27 17.53 37.23 19.61 37.23 19.61 39.31 20.57 39.31 20.57 37.23 22.65 37.23 22.65 36.27 20.57 36.27 20.57 36.27" style="fill-rule:evenodd;"/><polygon points="37.66 36.27 37.66 34.19 36.7 34.19 36.7 36.27 34.62 36.27 34.62 37.23 36.7 37.23 36.7 39.31 37.66 39.31 37.66 37.23 39.74 37.23 39.74 36.27 37.66 36.27 37.66 36.27" style="fill-rule:evenodd;"/><polygon points="54.97 36.27 54.97 34.19 54.01 34.19 54.01 36.27 51.93 36.27 51.93 37.23 54.01 37.23 54.01 39.31 54.97 39.31 54.97 37.23 57.05 37.23 57.05 36.27 54.97 36.27 54.97 36.27" style="fill-rule:evenodd;"/><polygon points="72.28 36.27 72.28 34.19 71.32 34.19 71.32 36.27 69.24 36.27 69.24 37.23 71.32 37.23 71.32 39.31 72.28 39.31 72.28 37.23 74.36 37.23 74.36 36.27 72.28 36.27 72.28 36.27" style="fill-rule:evenodd;"/><polygon points="89.59 36.27 89.59 34.19 88.63 34.19 88.63 36.27 86.55 36.27 86.55 37.23 88.63 37.23 88.63 39.31 89.59 39.31 89.59 37.23 91.67 37.23 91.67 36.27 89.59 36.27 89.59 36.27" style="fill-rule:evenodd;"/><polygon points="106.9 36.27 106.9 34.19 105.94 34.19 105.94 36.27 103.86 36.27 103.86 37.23 105.94 37.23 105.94 39.31 106.9 39.31 106.9 37.23 108.98 37.23 108.98 36.27 106.9 36.27 106.9 36.27" style="fill-rule:evenodd;"/><polygon points="124.21 36.27 124.21 34.19 123.25 34.19 123.25 36.27 121.17 36.27 121.17 37.23 123.25 37.23 123.25 39.31 124.21 39.31 124.21 37.23 126.29 37.23 126.29 36.27 124.21 36.27 124.21 36.27" style="fill-rule:evenodd;"/><polygon points="12.24 25.15 12.24 23.07 11.28 23.07 11.28 25.15 9.2 25.15 9.2 26.11 11.28 26.11 11.28 28.19 12.24 28.19 12.24 26.11 14.32 26.11 14.32 25.15 12.24 25.15 12.24 25.15" style="fill-rule:evenodd;"/><polygon points="29.77 25.15 29.77 23.07 28.81 23.07 28.81 25.15 26.73 25.15 26.73 26.11 28.81 26.11 28.81 28.19 29.77 28.19 29.77 26.11 31.85 26.11 31.85 25.15 29.77 25.15 29.77 25.15" style="fill-rule:evenodd;"/><polygon points="46.86 25.15 46.86 23.07 45.9 23.07 45.9 25.15 43.82 25.15 43.82 26.11 45.9 26.11 45.9 28.19 46.86 28.19 46.86 26.11 48.94 26.11 48.94 25.15 46.86 25.15 46.86 25.15" style="fill-rule:evenodd;"/><polygon points="64.17 25.15 64.17 23.07 63.21 23.07 63.21 25.15 61.13 25.15 61.13 26.11 63.21 26.11 63.21 28.19 64.17 28.19 64.17 26.11 66.25 26.11 66.25 25.15 64.17 25.15 64.17 25.15" style="fill-rule:evenodd;"/><polygon points="81.48 25.15 81.48 23.07 80.52 23.07 80.52 25.15 78.44 25.15 78.44 26.11 80.52 26.11 80.52 28.19 81.48 28.19 81.48 26.11 83.56 26.11 83.56 25.15 81.48 25.15 81.48 25.15" style="fill-rule:evenodd;"/><polygon points="98.79 25.15 98.79 23.07 97.83 23.07 97.83 25.15 95.75 25.15 95.75 26.11 97.83 26.11 97.83 28.19 98.79 28.19 98.79 26.11 100.87 26.11 100.87 25.15 98.79 25.15 98.79 25.15" style="fill-rule:evenodd;"/><polygon points="116.1 25.15 116.1 23.07 115.14 23.07 115.14 25.15 113.06 25.15 113.06 26.11 115.14 26.11 115.14 28.19 116.1 28.19 116.1 26.11 118.18 26.11 118.18 25.15 116.1 25.15 116.1 25.15" style="fill-rule:evenodd;"/><polygon points="3.04 13.46 3.04 11.38 2.08 11.38 2.08 13.46 0 13.46 0 14.42 2.08 14.42 2.08 16.5 3.04 16.5 3.04 14.42 5.12 14.42 5.12 13.46 3.04 13.46 3.04 13.46" style="fill-rule:evenodd;"/><polygon points="20.57 13.46 20.57 11.38 19.61 11.38 19.61 13.46 17.53 13.46 17.53 14.42 19.61 14.42 19.61 16.5 20.57 16.5 20.57 14.42 22.65 14.42 22.65 13.46 20.57 13.46 20.57 13.46" style="fill-rule:evenodd;"/><polygon points="37.66 13.46 37.66 11.38 36.7 11.38 36.7 13.46 34.62 13.46 34.62 14.42 36.7 14.42 36.7 16.5 37.66 16.5 37.66 14.42 39.74 14.42 39.74 13.46 37.66 13.46 37.66 13.46" style="fill-rule:evenodd;"/><polygon points="54.97 13.46 54.97 11.38 54.01 11.38 54.01 13.46 51.93 13.46 51.93 14.42 54.01 14.42 54.01 16.5 54.97 16.5 54.97 14.42 57.05 14.42 57.05 13.46 54.97 13.46 54.97 13.46" style="fill-rule:evenodd;"/><polygon points="72.28 13.46 72.28 11.38 71.32 11.38 71.32 13.46 69.24 13.46 69.24 14.42 71.32 14.42 71.32 16.5 72.28 16.5 72.28 14.42 74.36 14.42 74.36 13.46 72.28 13.46 72.28 13.46" style="fill-rule:evenodd;"/><polygon points="89.59 13.46 89.59 11.38 88.63 11.38 88.63 13.46 86.55 13.46 86.55 14.42 88.63 14.42 88.63 16.5 89.59 16.5 89.59 14.42 91.67 14.42 91.67 13.46 89.59 13.46 89.59 13.46" style="fill-rule:evenodd;"/><polygon points="106.9 13.46 106.9 11.38 105.94 11.38 105.94 13.46 103.86 13.46 103.86 14.42 105.94 14.42 105.94 16.5 106.9 16.5 106.9 14.42 108.98 14.42 108.98 13.46 106.9 13.46 106.9 13.46" style="fill-rule:evenodd;"/><polygon points="124.21 13.46 124.21 11.38 123.25 11.38 123.25 13.46 121.17 13.46 121.17 14.42 123.25 14.42 123.25 16.5 124.21 16.5 124.21 14.42 126.29 14.42 126.29 13.46 124.21 13.46 124.21 13.46" style="fill-rule:evenodd;"/><polygon points="12.24 2.34 12.24 .26 11.28 .26 11.28 2.34 9.2 2.34 9.2 3.3 11.28 3.3 11.28 5.38 12.24 5.38 12.24 3.3 14.32 3.3 14.32 2.34 12.24 2.34 12.24 2.34" style="fill-rule:evenodd;"/><polygon points="29.77 2.34 29.77 .26 28.81 .26 28.81 2.34 26.73 2.34 26.73 3.3 28.81 3.3 28.81 5.38 29.77 5.38 29.77 3.3 31.85 3.3 31.85 2.34 29.77 2.34 29.77 2.34" style="fill-rule:evenodd;"/><polygon points="46.86 2.34 46.86 .26 45.9 .26 45.9 2.34 43.82 2.34 43.82 3.3 45.9 3.3 45.9 5.38 46.86 5.38 46.86 3.3 48.94 3.3 48.94 2.34 46.86 2.34 46.86 2.34" style="fill-rule:evenodd;"/><polygon points="64.17 2.34 64.17 .26 63.21 .26 63.21 2.34 61.13 2.34 61.13 3.3 63.21 3.3 63.21 5.38 64.17 5.38 64.17 3.3 66.25 3.3 66.25 2.34 64.17 2.34 64.17 2.34" style="fill-rule:evenodd;"/><polygon points="81.48 2.34 81.48 .26 80.52 .26 80.52 2.34 78.44 2.34 78.44 3.3 80.52 3.3 80.52 5.38 81.48 5.38 81.48 3.3 83.56 3.3 83.56 2.34 81.48 2.34 81.48 2.34" style="fill-rule:evenodd;"/><polygon points="98.79 2.34 98.79 .26 97.83 .26 97.83 2.34 95.75 2.34 95.75 3.3 97.83 3.3 97.83 5.38 98.79 5.38 98.79 3.3 100.87 3.3 100.87 2.34 98.79 2.34 98.79 2.34" style="fill-rule:evenodd;"/><polygon points="116.1 2.34 116.1 .26 115.14 .26 115.14 2.34 113.06 2.34 113.06 3.3 115.14 3.3 115.14 5.38 116.1 5.38 116.1 3.3 118.18 3.3 118.18 2.34 116.1 2.34 116.1 2.34" style="fill-rule:evenodd;"/></g></g></svg>