<svg width="439" height="120" viewBox="0 0 439 120" fill="none" xmlns="http://www.w3.org/2000/svg">
<g clip-path="url(#clip0_1_2)">
<path d="M59.71 0L0 59.71L19.46 79.17L48.97 49.66C54.39 44.24 62.85 43.54 68.65 48.03C72.02 50.63 74.12 54.55 74.39 58.76C74.66 62.98 73.1 67.12 70.12 70.1L53.68 86.54L67.1 99.96L59.72 107.34L38.92 86.54L62.74 62.72C64.41 61.05 64.41 58.35 62.74 56.68C61.94 55.88 60.87 55.44 59.72 55.42C58.58 55.42 57.51 55.87 56.7 56.68L26.84 86.53L59.72 119.41L79.18 99.95L65.76 86.53L76.16 76.13C85.22 67.07 85.22 52.32 76.16 43.25C67.1 34.19 52.35 34.19 43.28 43.25L19.46 67.07L12.08 59.69L59.71 12.08L107.34 59.71L80.5 86.55L86.54 92.59L119.41 59.71L59.71 0Z" fill="#D49F32"/>
<path d="M145.48 8.17V44.11H139.42V8.17H145.48ZM143.02 8.17H150.26C152.86 8.17 155.13 8.62 157.07 9.53C159 10.44 160.5 11.72 161.56 13.38C162.62 15.04 163.16 17.02 163.16 19.31C163.16 21.6 162.63 23.59 161.56 25.27C160.49 26.95 159 28.24 157.07 29.15C155.13 30.06 152.87 30.51 150.26 30.51H143.02V25.17H150.26C152.35 25.17 154.02 24.67 155.29 23.68C156.55 22.69 157.19 21.23 157.19 19.32C157.19 17.41 156.55 15.96 155.29 14.98C154.02 14 152.34 13.52 150.26 13.52H143.02V8.18V8.17Z" fill="white"/>
<path d="M175.15 8.17V44.11H169.1V8.17H175.15ZM172.7 8.17H180.2C182.8 8.17 185.06 8.63 187 9.56C188.93 10.49 190.43 11.78 191.49 13.44C192.55 15.1 193.09 17.06 193.09 19.32C193.09 21.58 192.56 23.55 191.49 25.22C190.42 26.89 188.93 28.2 187 29.12C185.06 30.04 182.8 30.51 180.2 30.51H172.7V25.53H179.94C181.31 25.53 182.51 25.29 183.56 24.81C184.6 24.33 185.42 23.64 186 22.73C186.58 21.82 186.87 20.74 186.87 19.47C186.87 18.2 186.58 17.07 186 16.18C185.42 15.29 184.6 14.6 183.56 14.13C182.52 13.65 181.31 13.41 179.94 13.41H172.7V8.17ZM183.07 26.96L195.24 44.11H187.94L176.49 26.96H183.07Z" fill="white"/>
<path d="M198.98 18.7C199.9 16.44 201.21 14.48 202.91 12.82C204.6 11.16 206.59 9.87 208.86 8.94C211.14 8.02 213.59 7.55 216.23 7.55C218.87 7.55 221.42 8.01 223.68 8.94C225.94 9.87 227.92 11.16 229.61 12.82C231.3 14.48 232.61 16.44 233.54 18.7C234.46 20.96 234.92 23.44 234.92 26.14C234.92 28.84 234.46 31.29 233.54 33.59C232.61 35.88 231.31 37.87 229.64 39.55C227.96 41.23 225.98 42.54 223.71 43.48C221.43 44.42 218.95 44.89 216.24 44.89C213.53 44.89 211.09 44.42 208.8 43.48C206.51 42.54 204.53 41.23 202.87 39.55C201.21 37.87 199.92 35.89 199 33.59C198.08 31.29 197.61 28.81 197.61 26.14C197.61 23.47 198.07 20.95 199 18.7H198.98ZM205.58 32.74C206.62 34.67 208.07 36.19 209.92 37.28C211.77 38.38 213.87 38.92 216.23 38.92C218.59 38.92 220.74 38.37 222.57 37.28C224.4 36.19 225.84 34.67 226.88 32.74C227.92 30.81 228.45 28.61 228.45 26.14C228.45 23.67 227.94 21.48 226.91 19.54C225.89 17.61 224.45 16.09 222.62 15C220.79 13.91 218.66 13.36 216.23 13.36C213.8 13.36 211.76 13.91 209.92 15C208.07 16.1 206.63 17.61 205.58 19.54C204.54 21.47 204.01 23.67 204.01 26.14C204.01 28.61 204.53 30.8 205.58 32.74Z" fill="white"/>
<path d="M245.03 44.11H238.77L243.7 6.38L258.43 30.77L273.22 6.38L278.15 44.11H271.89L269.37 22.24L258.43 40.77L247.5 22.24L245.03 44.11Z" fill="white"/>
<path d="M290.11 8.17V44.11H284.05V8.17H290.11ZM287.65 8.17H294.89C297.49 8.17 299.76 8.62 301.69 9.53C303.62 10.44 305.12 11.72 306.19 13.38C307.25 15.04 307.78 17.02 307.78 19.31C307.78 21.6 307.25 23.59 306.19 25.27C305.13 26.95 303.63 28.24 301.69 29.15C299.75 30.06 297.49 30.51 294.89 30.51H287.65V25.17H294.89C296.98 25.17 298.65 24.67 299.92 23.68C301.19 22.69 301.82 21.23 301.82 19.32C301.82 17.41 301.18 15.96 299.92 14.98C298.65 14 296.98 13.52 294.89 13.52H287.65V8.18V8.17Z" fill="white"/>
<path d="M308.59 8.17H333.65V13.77H324.15V44.11H318.04V13.77H308.59V8.17Z" fill="white"/>
<path d="M359.52 8.17V44.11H353.46V8.17H359.52ZM357.06 8.17H364.3C366.9 8.17 369.17 8.62 371.1 9.53C373.03 10.44 374.53 11.72 375.6 13.38C376.66 15.04 377.19 17.02 377.19 19.31C377.19 21.6 376.66 23.59 375.6 25.27C374.54 26.95 373.04 28.24 371.1 29.15C369.17 30.06 366.9 30.51 364.3 30.51H357.06V25.17H364.3C366.39 25.17 368.06 24.67 369.33 23.68C370.6 22.69 371.23 21.23 371.23 19.32C371.23 17.41 370.59 15.96 369.33 14.98C368.06 14 366.39 13.52 364.3 13.52H357.06V8.18V8.17Z" fill="white"/>
<path d="M387.61 31.53L387.51 32.86L382.53 44.1H375.7L393.26 6.16L410.82 44.1H403.99L399.11 33.16L398.96 31.67L393.26 18.32L387.62 31.51L387.61 31.53ZM384.99 29.74H401.68L402.86 34.87H383.87L385 29.74H384.99Z" fill="white"/>
<path d="M438.07 8.17L425.85 28.96V44.11H419.69V29.02L407.52 8.18H414.4L422.77 23.58L431.14 8.18H438.07V8.17Z" fill="white"/>
<path d="M152.21 94.77C153.99 97.75 156.33 100.04 159.22 101.66C162.12 103.28 165.26 104.09 168.66 104.09C171.32 104.09 173.71 103.74 175.83 103.05C177.96 102.36 179.88 101.42 181.61 100.22C183.33 99.02 184.83 97.69 186.11 96.2V107.35C183.77 109.26 181.25 110.72 178.54 111.73C175.83 112.74 172.43 113.24 168.35 113.24C164.27 113.24 160.45 112.55 156.91 111.17C153.38 109.79 150.31 107.8 147.71 105.2C145.11 102.6 143.07 99.53 141.62 96C140.16 92.47 139.43 88.61 139.43 84.41C139.43 80.21 140.16 76.35 141.62 72.82C143.08 69.29 145.11 66.22 147.71 63.62C150.31 61.02 153.38 59.03 156.91 57.65C160.44 56.27 164.25 55.58 168.35 55.58C172.45 55.58 175.83 56.09 178.54 57.09C181.25 58.09 183.77 59.56 186.11 61.47V72.62C184.83 71.14 183.34 69.79 181.61 68.6C179.88 67.4 177.95 66.46 175.83 65.77C173.71 65.08 171.32 64.73 168.66 64.73C165.26 64.73 162.12 65.54 159.22 67.16C156.33 68.78 153.99 71.06 152.21 74.01C150.43 76.96 149.55 80.42 149.55 84.41C149.55 88.4 150.43 91.79 152.21 94.77Z" fill="white"/>
<path d="M208.97 92.78L208.81 94.85L201.08 112.3H190.49L217.73 53.43L244.98 112.3H234.39L226.82 95.33L226.58 93.02L217.74 72.31L208.98 92.78H208.97ZM204.91 89.99H230.8L232.63 97.95H203.16L204.91 89.99Z" fill="white"/>
<path d="M260.82 56.54V112.3H251.42V56.54H260.82ZM257 56.54H268.23C272.27 56.54 275.78 57.24 278.78 58.65C281.78 60.06 284.11 62.05 285.76 64.62C287.4 67.2 288.23 70.26 288.23 73.82C288.23 77.38 287.4 80.46 285.76 83.06C284.11 85.66 281.79 87.67 278.78 89.07C275.77 90.47 272.26 91.18 268.23 91.18H257V82.89H268.23C271.47 82.89 274.07 82.12 276.04 80.58C278.01 79.04 278.99 76.78 278.99 73.81C278.99 70.84 278 68.59 276.04 67.08C274.08 65.57 271.48 64.81 268.23 64.81H257V56.52V56.54Z" fill="white"/>
<path d="M306.95 56.54V112.3H297.47V56.54H306.95Z" fill="white"/>
<path d="M313.8 56.54H352.68V65.22H337.94V112.3H328.46V65.22H313.8V56.54Z" fill="white"/>
<path d="M364.07 92.78L363.91 94.85L356.18 112.3H345.59L372.83 53.43L400.08 112.3H389.49L381.92 95.33L381.68 93.02L372.84 72.31L364.08 92.78H364.07ZM360 89.99H385.89L387.72 97.95H358.25L360 89.99Z" fill="white"/>
<path d="M415.92 56.54V103.86H438.07V112.3H406.52V56.54H415.92Z" fill="white"/>
</g>
<defs>
<clipPath id="clip0_1_2">
<rect width="438.07" height="119.42" fill="white"/>
</clipPath>
</defs>
</svg>
