<?xml version="1.0" encoding="UTF-8"?><svg id="uuid-d3e60388-12ee-420d-8f6f-5a182db9a2e9" xmlns="http://www.w3.org/2000/svg" viewBox="0 0 438.07 119.42"><g id="uuid-4df18058-0a86-4c02-870d-9379e26869dd"><g id="uuid-d4c7e62e-be15-418e-88ee-f7e51200abb3"><path id="uuid-b9e574ad-4e49-44fe-817f-1ff63c71b3b8" d="M59.71,0L0,59.71l19.46,19.46,29.51-29.51c5.42-5.42,13.88-6.12,19.68-1.63,3.37,2.6,5.47,6.52,5.74,10.73.27,4.22-1.29,8.36-4.27,11.34l-16.44,16.44,13.42,13.42-7.38,7.38-20.8-20.8,23.82-23.82c1.67-1.67,1.67-4.37,0-6.04-.8-.8-1.87-1.24-3.02-1.26-1.14,0-2.21.45-3.02,1.26l-29.86,29.85,32.88,32.88,19.46-19.46-13.42-13.42,10.4-10.4c9.06-9.06,9.06-23.81,0-32.88-9.06-9.06-23.81-9.06-32.88,0l-23.82,23.82-7.38-7.38L59.71,12.08l47.63,47.63-26.84,26.84,6.04,6.04,32.87-32.88L59.71,0Z" style="fill:#d49f32;"/><g id="uuid-8ff016a2-dfc4-445f-a8c9-55b41d5ba67c"><path d="M145.48,8.17v35.94h-6.06V8.17h6.06ZM143.02,8.17h7.24c2.6,0,4.87.45,6.81,1.36,1.93.91,3.43,2.19,4.49,3.85,1.06,1.66,1.6,3.64,1.6,5.93s-.53,4.28-1.6,5.96-2.56,2.97-4.49,3.88c-1.94.91-4.2,1.36-6.81,1.36h-7.24v-5.34h7.24c2.09,0,3.76-.5,5.03-1.49,1.26-.99,1.9-2.45,1.9-4.36s-.64-3.36-1.9-4.34c-1.27-.98-2.95-1.46-5.03-1.46h-7.24v-5.34Z" style="fill:#011149;"/><path d="M175.15,8.17v35.94h-6.05V8.17h6.05ZM172.7,8.17h7.5c2.6,0,4.86.46,6.8,1.39,1.93.93,3.43,2.22,4.49,3.88s1.6,3.62,1.6,5.88-.53,4.23-1.6,5.9-2.56,2.98-4.49,3.9c-1.94.92-4.2,1.39-6.8,1.39h-7.5v-4.98h7.24c1.37,0,2.57-.24,3.62-.72,1.04-.48,1.86-1.17,2.44-2.08.58-.91.87-1.99.87-3.26s-.29-2.4-.87-3.29c-.58-.89-1.4-1.58-2.44-2.05-1.04-.48-2.25-.72-3.62-.72h-7.24v-5.24ZM183.07,26.96l12.17,17.15h-7.3l-11.45-17.15h6.58Z" style="fill:#011149;"/><path d="M198.98,18.7c.92-2.26,2.23-4.22,3.93-5.88,1.69-1.66,3.68-2.95,5.95-3.88,2.28-.92,4.73-1.39,7.37-1.39s5.19.46,7.45,1.39c2.26.93,4.24,2.22,5.93,3.88,1.69,1.66,3,3.62,3.93,5.88.92,2.26,1.38,4.74,1.38,7.44s-.46,5.15-1.38,7.45c-.93,2.29-2.23,4.28-3.9,5.96-1.68,1.68-3.66,2.99-5.93,3.93-2.28.94-4.76,1.41-7.47,1.41s-5.15-.47-7.44-1.41c-2.29-.94-4.27-2.25-5.93-3.93-1.66-1.68-2.95-3.66-3.87-5.96s-1.39-4.78-1.39-7.45.46-5.19,1.39-7.44ZM205.58,32.74c1.04,1.93,2.49,3.45,4.34,4.54,1.85,1.1,3.95,1.64,6.31,1.64s4.51-.55,6.34-1.64c1.83-1.09,3.27-2.61,4.31-4.54,1.04-1.93,1.57-4.13,1.57-6.6s-.51-4.66-1.54-6.6c-1.02-1.93-2.46-3.45-4.29-4.54-1.83-1.09-3.96-1.64-6.39-1.64s-4.47.55-6.31,1.64c-1.85,1.1-3.29,2.61-4.34,4.54-1.04,1.93-1.57,4.13-1.57,6.6s.52,4.66,1.57,6.6Z" style="fill:#011149;"/><path d="M245.03,44.11h-6.26l4.93-37.73,14.73,24.39,14.79-24.39,4.93,37.73h-6.26l-2.52-21.87-10.94,18.53-10.93-18.53-2.47,21.87Z" style="fill:#011149;"/><path d="M290.11,8.17v35.94h-6.06V8.17h6.06ZM287.65,8.17h7.24c2.6,0,4.87.45,6.8,1.36s3.43,2.19,4.5,3.85c1.06,1.66,1.59,3.64,1.59,5.93s-.53,4.28-1.59,5.96c-1.06,1.68-2.56,2.97-4.5,3.88s-4.2,1.36-6.8,1.36h-7.24v-5.34h7.24c2.09,0,3.76-.5,5.03-1.49,1.27-.99,1.9-2.45,1.9-4.36s-.64-3.36-1.9-4.34c-1.27-.98-2.94-1.46-5.03-1.46h-7.24v-5.34Z" style="fill:#011149;"/><path d="M308.59,8.17h25.06v5.6h-9.5v30.34h-6.11V13.77h-9.45v-5.6Z" style="fill:#011149;"/><path d="M359.52,8.17v35.94h-6.06V8.17h6.06ZM357.06,8.17h7.24c2.6,0,4.87.45,6.8,1.36s3.43,2.19,4.5,3.85c1.06,1.66,1.59,3.64,1.59,5.93s-.53,4.28-1.59,5.96c-1.06,1.68-2.56,2.97-4.5,3.88-1.93.91-4.2,1.36-6.8,1.36h-7.24v-5.34h7.24c2.09,0,3.76-.5,5.03-1.49s1.9-2.45,1.9-4.36-.64-3.36-1.9-4.34c-1.27-.98-2.94-1.46-5.03-1.46h-7.24v-5.34Z" style="fill:#011149;"/><path d="M387.61,31.53l-.1,1.33-4.98,11.24h-6.83l17.56-37.94,17.56,37.94h-6.83l-4.88-10.94-.15-1.49-5.7-13.35-5.64,13.19ZM384.99,29.74h16.69l1.18,5.13h-18.99l1.13-5.13Z" style="fill:#011149;"/><path d="M438.07,8.17l-12.22,20.79v15.15h-6.16v-15.09l-12.17-20.84h6.88l8.37,15.4,8.37-15.4h6.93Z" style="fill:#011149;"/><path d="M152.21,94.77c1.78,2.98,4.12,5.27,7.01,6.89,2.9,1.62,6.04,2.43,9.44,2.43,2.66,0,5.05-.35,7.17-1.04,2.13-.69,4.05-1.63,5.78-2.83,1.72-1.2,3.22-2.53,4.5-4.02v11.15c-2.34,1.91-4.86,3.37-7.57,4.38s-6.11,1.51-10.19,1.51-7.9-.69-11.44-2.07c-3.53-1.38-6.6-3.37-9.2-5.97s-4.64-5.67-6.09-9.2c-1.46-3.53-2.19-7.39-2.19-11.59s.73-8.06,2.19-11.59c1.46-3.53,3.49-6.6,6.09-9.2,2.6-2.6,5.67-4.59,9.2-5.97,3.53-1.38,7.34-2.07,11.44-2.07s7.48.51,10.19,1.51,5.23,2.47,7.57,4.38v11.15c-1.28-1.48-2.77-2.83-4.5-4.02-1.73-1.2-3.66-2.14-5.78-2.83-2.12-.69-4.51-1.04-7.17-1.04-3.4,0-6.54.81-9.44,2.43-2.89,1.62-5.23,3.9-7.01,6.85-1.78,2.95-2.66,6.41-2.66,10.4s.88,7.38,2.66,10.36Z" style="fill:#011149;"/><path d="M208.97,92.78l-.16,2.07-7.73,17.45h-10.59l27.24-58.87,27.25,58.87h-10.59l-7.57-16.97-.24-2.31-8.84-20.71-8.76,20.47ZM204.91,89.99h25.89l1.83,7.96h-29.47l1.75-7.96Z" style="fill:#011149;"/><path d="M260.82,56.54v55.76h-9.4v-55.76h9.4ZM257,56.54h11.23c4.04,0,7.55.7,10.55,2.11,3,1.41,5.33,3.4,6.98,5.97,1.64,2.58,2.47,5.64,2.47,9.2s-.83,6.64-2.47,9.24c-1.65,2.6-3.97,4.61-6.98,6.01s-6.52,2.11-10.55,2.11h-11.23v-8.29h11.23c3.24,0,5.84-.77,7.81-2.31s2.95-3.8,2.95-6.77-.99-5.22-2.95-6.73-4.56-2.27-7.81-2.27h-11.23v-8.29Z" style="fill:#011149;"/><path d="M306.95,56.54v55.76h-9.48v-55.76h9.48Z" style="fill:#011149;"/><path d="M313.8,56.54h38.88v8.68h-14.74v47.08h-9.48v-47.08h-14.66v-8.68Z" style="fill:#011149;"/><path d="M364.07,92.78l-.16,2.07-7.73,17.45h-10.59l27.24-58.87,27.25,58.87h-10.59l-7.57-16.97-.24-2.31-8.84-20.71-8.76,20.47ZM360,89.99h25.89l1.83,7.96h-29.47l1.75-7.96Z" style="fill:#011149;"/><path d="M415.92,56.54v47.32h22.15v8.44h-31.55v-55.76h9.4Z" style="fill:#011149;"/></g></g></g></svg>