<svg width="75" height="75" viewBox="0 0 75 75" fill="none" xmlns="http://www.w3.org/2000/svg">
<path d="M37.5031 0.0125576L0 37.5094L12.2226 49.73L30.7575 31.1982C34.1617 27.7945 39.4753 27.3549 43.1183 30.1746C45.2349 31.8073 46.5539 34.269 46.7235 36.9128C46.8931 39.5629 45.9132 42.1628 44.0415 44.0342L33.7158 54.3582L42.1447 62.7857L37.5094 67.4203L24.4452 54.3582L39.4062 39.3996C40.4552 38.3509 40.4552 36.6554 39.4062 35.6066C38.9038 35.1042 38.2317 34.8279 37.5094 34.8154C36.7934 34.8154 36.1214 35.098 35.6126 35.6066L16.8579 54.3519L37.5094 75L49.732 62.7795L41.3031 54.3519L47.8352 47.8209C53.5257 42.1314 53.5257 32.8686 47.8352 27.1728C42.1447 21.4833 32.8804 21.4833 27.1837 27.1728L12.2226 42.1314L7.58731 37.4969L37.5031 7.58603L67.419 37.4969L50.5611 54.3519L54.3547 58.1449L75 37.4969L37.4969 0L37.5031 0.0125576Z" fill="#D49F32"/>
</svg>
